<?xml version="1.0" encoding="utf-8"?>
<!DOCTYPE svg PUBLIC "-//W3C//DTD SVG 1.1//EN" "http://www.w3.org/Graphics/SVG/1.1/DTD/svg11.dtd">
<svg version="1.1" id="Layer_1" xmlns="http://www.w3.org/2000/svg">
<g id="Layer_1_copy" display="none">
</g>
<g id="Layer_3_copy" display="none">
	<path display="inline" fill="#E1D5C5" stroke="#352218" stroke-width="14" stroke-miterlimit="10" d="M435.997,547.4
		c0,31.812-64.247,51.267-89,51.267c-25.497,0-89-19.455-89-51.267V484.6c0-31.812,25.789-57.597,57.6-57.597L378.397,427
		c31.811,0,57.601,25.788,57.601,57.6L435.997,547.4L435.997,547.4z"/>
	<g display="inline">
		<path fill="#FFFFFF" stroke="#00A86B" stroke-width="12" stroke-miterlimit="10" d="M544.566-608.874
			c0,47.081-101.205,65.637-137.844,65.637c-37.731,0-143.842-18.556-143.842-65.637l-3.325-74.946
			c0-47.081,38.167-85.243,85.248-85.243c0,0,29.136-5.924,61.919-5.924c31.467,0,55.917,5.92,55.917,5.92
			c47.079,0,85.249,38.167,85.249,85.248L544.566-608.874z"/>
		<path fill="#FFFFFF" stroke="#00A86B" stroke-width="12" stroke-miterlimit="10" d="M344.807-769.063
			c-59.345,14.796-32.863,109.973-70.516,116.562c-20,3.5-64.366-83.126-19.169-103.986
			C274.362-765.367,344.807-769.063,344.807-769.063z"/>
		<path fill="#FFFFFF" stroke="#00A86B" stroke-width="12" stroke-miterlimit="10" d="M462.643-769.063
			c59.347,14.796,32.865,109.973,70.518,116.562c20,3.5,64.366-83.126,19.169-103.986
			C533.088-765.367,462.643-769.063,462.643-769.063z"/>
	</g>
	<path display="inline" fill="#00A86B" d="M456.25-660.42c0.343-3.92,0.352-7.907,1.109-11.747
		c1.384-7.023,8.182-12.628,15.299-13.795c8.07-1.322,16.242,2.914,19.959,9.926c1.566,2.958,2.152,6.188,2.24,9.483
		c0.109,4.081,0.117,8.174,0.01,12.258c-0.217,7.977-3.586,14.235-10.821,17.858c-6.354,3.182-14.644,2.459-20.381-2.314
		c-4.903-4.082-7.089-9.264-7.095-15.514c0-2.041,0-4.086,0-6.129C456.463-660.402,456.355-660.41,456.25-660.42z"/>
	<path display="inline" fill="#00A86B" d="M311.861-660.42c0.343-3.92,0.353-7.907,1.107-11.747
		c1.387-7.023,8.183-12.627,15.299-13.797c8.07-1.322,16.242,2.914,19.96,9.927c1.569,2.958,2.153,6.188,2.242,9.484
		c0.11,4.082,0.117,8.174,0.011,12.257c-0.219,7.979-3.587,14.236-10.822,17.86c-6.354,3.182-14.646,2.458-20.381-2.316
		c-4.903-4.082-7.089-9.262-7.098-15.513c0-2.041,0-4.086,0-6.129C312.076-660.401,311.968-660.409,311.861-660.42z"/>
	
		<path display="inline" fill="#FFFFFF" stroke="#00A86B" stroke-width="12" stroke-linecap="round" stroke-linejoin="round" stroke-miterlimit="10" d="
		M384.377-566.436c0.344-3.92,0.354-7.907,1.109-11.747c1.385-7.023,8.182-12.627,15.299-13.797
		c8.07-1.322,16.242,2.914,19.959,9.927c1.57,2.958,2.154,6.188,2.242,9.484c0.109,4.082,0.117,8.174,0.01,12.257
		c-0.217,7.979-3.587,14.236-10.822,17.86c-6.354,3.182-14.645,2.458-20.381-2.316c-4.903-4.082-7.09-9.262-7.096-15.513
		c0-2.041,0-4.086,0-6.129C384.592-566.417,384.484-566.425,384.377-566.436z"/>
	<g display="inline">
		
			<path fill="#FFFFFF" stroke="#00A86B" stroke-width="12" stroke-linecap="round" stroke-linejoin="round" stroke-miterlimit="10" d="
			M328.321-575.333c0,20.803-2.334,39.333,37.667,37.667c20.786-0.866,37.667-36.781,37.667-57.583V-614
			c0-20.803,0.083-19.75,0.083-19.75C381.652-633.75,328.321-618.333,328.321-575.333z"/>
		
			<path fill="#FFFFFF" stroke="#00A86B" stroke-width="12" stroke-linecap="round" stroke-linejoin="round" stroke-miterlimit="10" d="
			M479.154-575.333c0,20.803,0.832,35.333-37.667,37.667c-20.768,1.259-37.667-36.781-37.667-57.583V-614
			c0-20.803-0.083-19.75-0.083-19.75C425.822-633.75,479.154-618.333,479.154-575.333z"/>
	</g>
	<path display="inline" fill="#00A86B" d="M432.537-638.123c0,10.424-12.399,21.089-21.125,22.875c-3.918,0.802-12.08,0.802-16,0
		c-8.727-1.786-20.5-13.826-20.5-24.25l0,0c0-10.424,14.061-15,22.25-15h14.75C420.102-654.498,432.537-648.547,432.537-638.123
		L432.537-638.123z"/>
	<g display="inline">
		<path fill="#FFFFFF" stroke="#00A86B" stroke-width="10" stroke-miterlimit="10" d="M573.988-79.259
			c0,47.081-108.705,65.637-145.342,65.637c-37.732,0-143.844-18.556-143.844-65.637l-3.325-74.946
			c0-47.081,38.167-85.243,85.249-85.243c0,0,29.136-5.924,61.919-5.924c31.467,0,63.419,5.92,63.419,5.92
			c47.077,0,85.246,38.167,85.246,85.248L573.988-79.259z"/>
		<path fill="#FFFFFF" stroke="#00A86B" stroke-width="10" stroke-miterlimit="10" d="M366.729-239.449
			c-59.345,14.796-32.863,109.973-70.516,116.562c-20,3.5-64.366-83.126-19.169-103.986
			C296.285-235.753,366.729-239.449,366.729-239.449z"/>
		<path fill="#FFFFFF" stroke="#00A86B" stroke-width="10" stroke-miterlimit="10" d="M492.064-239.449
			c59.346,14.796,32.863,109.973,70.516,116.562c20,3.5,64.367-83.126,19.17-103.986
			C562.51-235.753,492.064-239.449,492.064-239.449z"/>
	</g>
	<path display="inline" fill="#00A86B" d="M489.369-128.801c0.314-3.617,0.324-7.295,1.021-10.838
		c1.277-6.479,7.551-11.651,14.115-12.728c7.445-1.22,14.985,2.688,18.415,9.158c1.447,2.729,1.986,5.709,2.067,8.75
		c0.103,3.766,0.107,7.542,0.008,11.31c-0.199,7.36-3.311,13.134-9.983,16.477c-5.86,2.936-13.511,2.269-18.804-2.135
		c-4.524-3.766-6.541-8.547-6.547-14.314c0-1.883,0-3.77,0-5.655C489.565-128.784,489.466-128.791,489.369-128.801z"/>
	<path display="inline" fill="#00A86B" d="M334.353-128.8c0.317-3.617,0.325-7.295,1.023-10.838
		c1.278-6.479,7.548-11.65,14.115-12.729c7.446-1.22,14.984,2.688,18.416,9.159c1.448,2.729,1.985,5.709,2.066,8.75
		c0.104,3.766,0.108,7.542,0.01,11.309c-0.199,7.361-3.311,13.135-9.984,16.479c-5.862,2.936-13.511,2.268-18.804-2.137
		c-4.524-3.766-6.541-8.545-6.547-14.313c0-1.883,0-3.77,0-5.655C334.55-128.783,334.451-128.791,334.353-128.8z"/>
	<g display="inline">
		
			<path fill="#FFFFFF" stroke="#00A86B" stroke-width="10" stroke-linecap="round" stroke-linejoin="round" stroke-miterlimit="10" d="
			M410.363-36.822c0.344-3.92,0.354-7.907,1.107-11.747c1.387-7.023,8.184-12.627,15.301-13.797
			c8.068-1.322,16.24,2.914,19.959,9.927c1.568,2.958,2.152,6.188,2.24,9.484c0.111,4.082,0.117,8.174,0.012,12.257
			c-0.219,7.979-3.588,14.236-10.822,17.86c-6.354,3.182-14.646,2.458-20.381-2.316c-4.903-4.082-7.09-9.262-7.098-15.513
			c0-2.041,0-4.086,0-6.129C410.578-36.803,410.471-36.811,410.363-36.822z"/>
		<g>
			
				<path fill="#FFFFFF" stroke="#00A86B" stroke-width="10" stroke-linecap="round" stroke-linejoin="round" stroke-miterlimit="10" d="
				M354.307-45.719c0,20.803-2.334,39.333,37.667,37.667c20.786-0.866,37.667-36.781,37.667-57.583v-18.75
				c0-20.803,0.083-19.75,0.083-19.75C407.639-104.136,354.307-88.719,354.307-45.719z"/>
			
				<path fill="#FFFFFF" stroke="#00A86B" stroke-width="10" stroke-linecap="round" stroke-linejoin="round" stroke-miterlimit="10" d="
				M505.141-45.719c0,20.803,0.832,35.333-37.667,37.667c-20.766,1.259-37.667-36.781-37.667-57.583v-18.75
				c0-20.803-0.083-19.75-0.083-19.75C451.809-104.136,505.141-88.719,505.141-45.719z"/>
		</g>
		<path fill="#00A86B" d="M458.523-108.509c0,10.424-12.399,21.089-21.125,22.875c-3.918,0.802-12.08,0.802-16,0
			c-8.727-1.786-20.5-13.826-20.5-24.25l0,0c0-10.424,14.061-15,22.25-15h14.75C446.088-124.884,458.523-118.933,458.523-108.509
			L458.523-108.509z"/>
	</g>
	<g id="Layer_6" display="inline">
		<path fill="#00A86B" d="M563.84-360.261c0,0.593,0,1.134,0,1.675c0,13.799-0.049,27.598,0.029,41.396
			c0.021,4.064-1.311,7.538-3.754,10.666c-3.039,3.886-6.928,6.767-11.15,9.212c-5.832,3.375-12.064,5.841-18.459,7.897
			c-7.43,2.392-14.986,4.315-22.68,5.684c-1.129,0.201-2.268,0.401-3.359,0.732c-0.424,0.127-0.834,0.556-1.082,0.952
			c-2.707,4.301-6.463,7.407-10.969,9.64c-2.828,1.4-5.85,2.133-8.975,2.598c-5.193,0.772-10.074-0.616-15.008-1.833
			c-8.227-2.03-16.465-4.009-24.703-5.979c-0.43-0.103-0.937,0.015-1.384,0.124c-7.616,1.849-15.227,3.745-22.854,5.561
			c-3.577,0.851-7.159,1.813-10.796,2.252c-4.102,0.495-8.149-0.277-12.043-1.73c-5.7-2.127-10.245-5.669-13.497-10.845
			c-0.218-0.345-0.67-0.679-1.064-0.756c-9.333-1.825-18.638-3.794-27.605-6.997c-4.771-1.703-9.478-3.655-14.044-5.843
			c-4.746-2.273-9.126-5.21-12.662-9.198c-3.061-3.451-5.022-7.336-4.995-12.144c0.078-13.759,0.027-27.518,0.027-41.274
			c0-0.553,0-1.104,0-1.888c-0.839,0.195-1.499,0.385-2.175,0.5c-5.565,0.952-10.945,0.357-15.904-2.418
			c-6.413-3.589-10.279-9.057-11.452-16.371c-0.596-3.711-1.264-7.41-1.861-11.121c-0.604-3.752-1.151-7.513-1.74-11.268
			c-0.375-2.384-0.99-4.753-1.119-7.149c-0.159-2.954-0.197-5.967,0.213-8.885c0.442-3.148,1.232-6.3,2.287-9.303
			c1.4-3.987,3.632-7.557,6.374-10.823c3.702-4.409,8.111-7.908,13.377-10.131c4.149-1.753,8.505-3.034,12.785-4.468
			c2.895-0.969,5.818-1.84,8.729-2.757c7.655-2.41,14.654-0.987,21.09,3.637c0.704,0.506,1.313,1.143,1.851,1.614
			c3.277-1.998,6.383-3.987,9.578-5.813c4.528-2.585,9.32-4.614,14.334-6.036c3.461-0.981,6.978-1.811,10.511-2.481
			c2.6-0.493,5.267-0.858,7.904-0.871c29.509-0.138,59.015-0.249,88.521-0.215c4.014,0.005,8.045,0.724,12.039,1.313
			c5.75,0.848,11.256,2.625,16.607,4.865c5.441,2.276,10.563,5.136,15.348,8.592c0.32,0.232,0.655,0.447,1.076,0.731
			c0.729-0.565,1.475-1.136,2.215-1.716c4.662-3.664,10.027-5.269,15.844-4.634c3.264,0.356,6.467,1.491,9.631,2.483
			c5.406,1.694,10.803,3.438,16.123,5.377c4.029,1.469,7.535,3.91,10.695,6.804c3.584,3.283,6.527,7.077,8.639,11.463
			c2.236,4.65,3.521,9.534,3.887,14.73c0.318,4.546-0.512,8.913-1.211,13.327c-0.588,3.714-1.104,7.44-1.746,11.145
			c-0.904,5.22-1.354,10.604-2.979,15.595c-2.732,8.375-8.938,13.24-17.656,14.828c-3.375,0.614-6.694,0.441-10.002-0.404
			C564.443-360.267,564.24-360.242,563.84-360.261z M507.086-293.496c1.967-0.428,3.902-0.829,5.828-1.271
			c8.434-1.935,16.734-4.334,24.658-7.833c5.018-2.217,9.926-4.698,13.789-8.787c1.828-1.938,2.859-4.133,2.826-6.845
			c-0.053-4.198-0.016-8.398-0.016-12.599c0-11.438,0.008-22.878-0.021-34.316c-0.002-0.584-0.195-1.245-0.512-1.735
			c-1.176-1.832-2.65-3.5-3.625-5.427c-2.105-4.179-3.965-8.483-5.939-12.728c-2.781-5.973-5.572-11.941-8.369-17.908
			c-3.098-6.615-6.219-13.219-9.307-19.839c-1.443-3.098-2.27-6.401-2.16-9.79c0.078-2.466,0.727-4.92,1.203-7.364
			c0.125-0.642,0.273-1.115-0.398-1.53c-2.938-1.808-5.787-3.774-8.801-5.441c-4.316-2.388-8.924-4.124-13.683-5.431
			c-5.565-1.53-11.226-2.516-17.011-2.525c-18.198-0.027-36.396-0.038-54.596,0c-11.229,0.023-22.457,0.057-33.683,0.288
			c-3.142,0.064-6.291,0.714-9.394,1.326c-4.995,0.985-9.761,2.713-14.394,4.833c-4.206,1.924-8.117,4.325-11.871,7.008
			c-0.551,0.393-0.631,0.765-0.433,1.406c0.999,3.203,1.74,6.465,1.035,9.831c-0.493,2.351-0.91,4.773-1.829,6.968
			c-1.93,4.609-4.162,9.092-6.277,13.623c-3.631,7.768-7.274,15.53-10.9,23.3c-1.292,2.768-2.493,5.579-3.835,8.321
			c-1.689,3.452-2.93,7.197-5.569,10.074c-1.204,1.313-1.349,2.634-1.346,4.212c0.024,15.119,0.026,30.237,0.003,45.354
			c-0.004,2.738,0.984,5.01,2.858,6.951c4.356,4.516,9.896,7.14,15.542,9.516c6.511,2.739,13.265,4.783,20.134,6.427
			c2.838,0.679,5.688,1.301,8.567,1.958c0.061-0.329,0.118-0.485,0.108-0.638c-0.244-4.224,1.023-8.165,2.32-12.083
			c2.224-6.718,4.938-13.225,8.551-19.335c3.985-6.742,8.629-12.934,14.51-18.184c4.969-4.436,10.441-8.018,16.543-10.667
			c0.271-0.118,0.582-0.579,0.566-0.864c-0.292-5.368,3.6-9.797,9.211-9.729c8.038,0.099,16.078,0.022,24.117,0.025
			c5.186,0.002,8.996,3.76,8.949,8.946c-0.012,1.13,0.459,1.613,1.381,2.049c2.08,0.982,4.186,1.944,6.153,3.122
			c5.563,3.327,10.608,7.313,14.757,12.331c2.372,2.873,4.791,5.742,6.85,8.838c4.547,6.839,8.037,14.231,10.576,22.043
			c1.021,3.153,1.813,6.391,2.555,9.626C507.041-296.573,506.971-295.071,507.086-293.496z M339.313-446.029
			c-1.875,0.455-3.776,0.82-5.619,1.383c-4.132,1.263-8.196,2.745-12.353,3.917c-6.808,1.921-12.69,5.21-17.082,10.875
			c-4.001,5.163-6.016,11.063-6.047,17.557c-0.012,2.512,0.542,5.032,0.908,7.539c0.635,4.348,1.304,8.69,1.996,13.028
			c0.585,3.673,1.282,7.328,1.825,11.006c0.972,6.584,6.183,11.225,12.818,11.402c4.624,0.124,8.657-1.771,11.083-5.814
			c2.052-3.419,3.558-7.17,5.256-10.795c4.045-8.625,8.063-17.263,12.094-25.894c2.4-5.143,4.849-10.265,7.198-15.431
			c1.052-2.309,1.349-4.719,1.002-7.307C351.566-440.765,345.458-446.053,339.313-446.029z M547.404-446.085
			c-0.033,0.102-0.066,0.204-0.102,0.305c-4.271-0.021-7.732,1.796-10.336,5.05c-2.336,2.922-3.576,6.368-2.607,10.127
			c0.645,2.507,1.688,4.934,2.748,7.308c2.104,4.709,4.344,9.358,6.527,14.031c3.631,7.765,7.264,15.531,10.896,23.295
			c1.246,2.661,2.678,5.25,3.713,7.989c1.955,5.173,7.994,9.531,14.162,8.512c5.941-0.981,9.938-4.734,11.195-10.409
			c1.018-4.588,1.52-9.292,2.25-13.943c0.66-4.183,1.234-8.382,2.012-12.543c0.752-4.038,0.887-8.047-0.107-12.035
			c-2.653-10.656-9.16-17.836-19.596-21.348c-4.732-1.593-9.494-3.097-14.262-4.579C551.76-444.989,549.572-445.503,547.404-446.085
			z M448.16-309.944c0,7.318,0.014,14.638-0.021,21.957c-0.004,0.971,0.287,1.359,1.273,1.593
			c8.166,1.938,16.326,3.905,24.463,5.959c2.77,0.698,5.547,1.241,8.369,0.884c4.926-0.623,9.051-2.855,12.121-6.813
			c1.959-2.522,3.047-5.504,2.832-8.646c-0.17-2.488-0.939-4.974-1.709-7.376c-1.863-5.824-4.219-11.454-7.17-16.825
			c-2.746-4.994-5.959-9.664-9.813-13.863c-3.213-3.501-6.787-6.624-10.928-8.988c-2.439-1.392-5.023-2.533-7.568-3.728
			c-0.334-0.156-1.031-0.129-1.223,0.099c-1.281,1.511-2.445,3.12-3.695,4.658c-2.027,2.496-4.047,5.004-6.178,7.409
			c-0.525,0.593-0.773,1.079-0.771,1.842C448.168-324.503,448.158-317.224,448.16-309.944z M438.494-309.823
			c0-7.355,0.006-14.716-0.014-22.074c-0.004-0.435-0.086-0.972-0.343-1.289c-2.745-3.389-5.603-6.688-8.286-10.124
			c-2.195-2.812-2.109-2.879-5.411-1.62c-0.224,0.085-0.438,0.188-0.651,0.293c-6.274,3.021-11.689,7.139-16.309,12.381
			c-3.541,4.018-6.57,8.366-9.113,13.045c-3.307,6.079-5.94,12.447-7.914,19.093c-0.77,2.583-1.218,5.163-0.742,7.821
			c0.607,3.404,2.349,6.143,4.979,8.404c4.543,3.908,9.813,5.297,15.546,4.032c9.005-1.984,17.924-4.352,26.894-6.494
			c1.072-0.256,1.396-0.68,1.388-1.754C438.474-295.347,438.494-302.585,438.494-309.823z"/>
		<path fill="#00A86B" d="M424.979-425.056c4.537,0.145,8.312,1.956,11.605,4.936c1.001,0.905,1.999,1.833,3.104,2.598
			c2.569,1.78,5.363,1.656,7.83-0.296c1.838-1.453,3.516-3.128,5.447-4.427c6.377-4.283,13.931-3.323,19.561,1.595
			c1.286,1.125,2.479,2.391,3.885,3.335c0.969,0.648,2.213,1.103,3.371,1.2c2.025,0.171,3.729,0.748,4.489,2.723
			c0.794,2.052,0.677,4.166-0.964,5.782c-1.635,1.613-3.793,1.689-5.939,1.332c-3.359-0.56-6.162-2.207-8.631-4.503
			c-0.959-0.892-1.968-1.735-3.002-2.537c-2.798-2.166-6.117-1.928-8.793,0.427c-1.781,1.568-3.604,3.144-5.604,4.405
			c-4.264,2.689-8.858,3.008-13.572,1.247c-2.489-0.931-4.582-2.496-6.514-4.303c-0.838-0.783-1.698-1.588-2.676-2.169
			c-3.508-2.082-6.146-1.203-8.74,1.283c-2.059,1.971-4.164,3.847-6.787,4.984c-2.5,1.084-5.112,1.828-7.862,0.958
			c-2.122-0.672-3.665-2.974-3.397-4.924c0.373-2.719,2.204-4.576,4.764-4.624c2.009-0.037,3.566-0.836,4.957-2.218
			c2.873-2.854,5.963-5.401,10.07-6.276C422.699-424.768,423.845-424.884,424.979-425.056z"/>
		<path fill="#00A86B" d="M496.361-361.185c0.229-2.609,0.232-5.264,0.736-7.818c0.924-4.674,5.445-8.406,10.186-9.183
			c5.371-0.881,10.811,1.94,13.285,6.607c1.045,1.968,1.434,4.12,1.49,6.312c0.074,2.718,0.078,5.44,0.008,8.159
			c-0.146,5.31-2.389,9.476-7.203,11.888c-4.229,2.118-9.748,1.637-13.566-1.54c-3.264-2.717-4.719-6.167-4.723-10.326
			c0-1.36,0-2.721,0-4.08C496.504-361.172,496.432-361.179,496.361-361.185z"/>
		<path fill="#00A86B" d="M364.814-361.046c0-1.799-0.003-3.599,0-5.397c0.002-4.716,3.448-9.399,7.908-11.026
			c4.291-1.565,8.313-1.123,11.992,1.477c3.403,2.403,5.273,5.776,5.354,10.005c0.055,3.038-0.033,6.078,0.02,9.115
			c0.1,5.798-3.594,10.91-9.201,12.441c-7.376,2.015-14.727-2.509-16.004-10.026c-0.36-2.138-0.055-4.389-0.055-6.588
			C364.824-361.046,364.818-361.046,364.814-361.046z"/>
		<path fill="#00A86B" d="M376.47-728.191c6.769,0.179,12.396,2.411,17.31,6.083c1.494,1.115,2.98,2.259,4.629,3.202
			c3.836,2.193,8.003,2.041,11.682-0.365c2.738-1.791,5.24-3.855,8.125-5.456c9.51-5.279,20.775-4.096,29.17,1.965
			c1.92,1.386,3.696,2.947,5.793,4.11c1.445,0.799,3.303,1.358,5.028,1.479c3.022,0.211,5.562,0.921,6.696,3.356
			c1.184,2.529,1.009,5.133-1.438,7.125c-2.438,1.988-5.656,2.082-8.859,1.641c-5.012-0.689-9.189-2.72-12.872-5.55
			c-1.433-1.101-2.936-2.139-4.479-3.127c-4.171-2.668-9.123-2.376-13.113,0.526c-2.654,1.933-5.372,3.875-8.354,5.429
			c-6.36,3.314-13.214,3.707-20.243,1.536c-3.715-1.147-6.834-3.076-9.715-5.302c-1.249-0.965-2.532-1.958-3.99-2.673
			c-5.23-2.565-9.162-1.482-13.035,1.581c-3.068,2.429-6.211,4.74-10.123,6.142c-3.728,1.335-7.626,2.252-11.728,1.18
			c-3.166-0.828-5.467-3.665-5.068-6.068c0.559-3.351,3.287-5.639,7.105-5.698c2.995-0.046,5.317-1.031,7.393-2.734
			c4.285-3.519,8.896-6.656,15.021-7.734C373.07-727.836,374.778-727.979,376.47-728.191z"/>
		<path fill="#00A86B" d="M402.143-198.577c6.768,0.179,12.395,2.411,17.31,6.083c1.493,1.115,2.979,2.259,4.629,3.202
			c3.835,2.193,8.003,2.041,11.682-0.365c2.737-1.791,5.24-3.854,8.124-5.456c9.512-5.279,20.775-4.096,29.17,1.965
			c1.922,1.386,3.697,2.947,5.794,4.11c1.444,0.799,3.302,1.358,5.028,1.479c3.023,0.211,5.563,0.921,6.696,3.356
			c1.183,2.529,1.009,5.133-1.438,7.125c-2.438,1.988-5.654,2.082-8.858,1.641c-5.013-0.689-9.19-2.72-12.872-5.55
			c-1.433-1.099-2.936-2.139-4.479-3.127c-4.171-2.668-9.124-2.376-13.112,0.526c-2.656,1.933-5.371,3.875-8.354,5.429
			c-6.36,3.314-13.214,3.707-20.243,1.536c-3.716-1.147-6.834-3.076-9.715-5.302c-1.249-0.965-2.532-1.958-3.99-2.673
			c-5.23-2.565-9.163-1.482-13.036,1.581c-3.068,2.429-6.21,4.74-10.122,6.142c-3.729,1.335-7.625,2.252-11.728,1.18
			c-3.166-0.828-5.468-3.665-5.068-6.068c0.559-3.351,3.287-5.639,7.104-5.698c2.995-0.046,5.319-1.031,7.394-2.734
			c4.284-3.517,8.895-6.656,15.021-7.734C398.742-198.222,400.451-198.365,402.143-198.577z"/>
	</g>
	<g display="inline">
		<g>
			<path fill="#F2F2F2" d="M-88.155-653.335c0,31.811-25.788,57.6-57.6,57.6h-309.279c-31.812,0-57.601-25.789-57.601-57.6v-309.279
				c0-31.812,25.789-57.6,57.601-57.6h309.279c31.812,0,57.6,25.788,57.6,57.6V-653.335z"/>
			<g>
				<path fill="#161616" d="M-151.935-799.51c0,0.729,0,1.396,0,2.063c0,17.005-0.06,34.01,0.036,51.017
					c0.027,5.009-1.612,9.289-4.626,13.145c-3.745,4.788-8.538,8.339-13.741,11.354c-7.188,4.159-14.87,7.197-22.749,9.731
					c-9.156,2.947-18.468,5.317-27.95,7.004c-1.391,0.248-2.792,0.495-4.14,0.902c-0.522,0.156-1.028,0.685-1.333,1.174
					c-3.336,5.3-7.965,9.128-13.518,11.88c-3.485,1.728-7.209,2.628-11.06,3.201c-6.4,0.951-12.415-0.76-18.493-2.26
					c-10.138-2.502-20.291-4.939-30.446-7.368c-0.527-0.127-1.151,0.018-1.703,0.152c-9.389,2.278-18.765,4.615-28.164,6.853
					c-4.408,1.049-8.823,2.235-13.304,2.775c-5.052,0.61-10.043-0.342-14.842-2.133c-7.024-2.621-12.625-6.986-16.633-13.364
					c-0.268-0.425-0.825-0.837-1.312-0.932c-11.502-2.249-22.968-4.676-34.022-8.623c-5.879-2.099-11.678-4.505-17.307-7.2
					c-5.849-2.802-11.247-6.421-15.604-11.336c-3.769-4.253-6.189-9.04-6.156-14.963c0.096-16.955,0.034-33.911,0.034-50.867
					c0-0.683,0-1.361,0-2.326c-1.031,0.24-1.847,0.474-2.678,0.616c-6.861,1.173-13.49,0.438-19.6-2.98
					c-7.902-4.423-12.667-11.161-14.113-20.175c-0.734-4.573-1.558-9.132-2.294-13.705c-0.745-4.624-1.418-9.259-2.144-13.886
					c-0.461-2.938-1.22-5.857-1.379-8.811c-0.196-3.641-0.242-7.354,0.263-10.949c0.545-3.882,1.518-7.764,2.818-11.465
					c1.726-4.913,4.476-9.313,7.854-13.338c4.562-5.434,9.996-9.745,16.486-12.484c5.116-2.16,10.481-3.738,15.758-5.506
					c3.565-1.194,7.17-2.269,10.757-3.397c9.434-2.971,18.059-1.217,25.991,4.482c0.867,0.623,1.619,1.407,2.278,1.989
					c4.041-2.462,7.866-4.914,11.806-7.165c5.581-3.186,11.486-5.687,17.665-7.438c4.265-1.209,8.596-2.231,12.95-3.058
					c3.204-0.606,6.491-1.058,9.744-1.073c36.363-0.17,72.725-0.307,109.089-0.266c4.946,0.006,9.915,0.892,14.837,1.618
					c7.086,1.045,13.871,3.234,20.469,5.995c6.706,2.805,13.017,6.329,18.912,10.588c0.397,0.286,0.809,0.551,1.326,0.901
					c0.897-0.696,1.817-1.399,2.729-2.114c5.745-4.516,12.359-6.493,19.525-5.711c4.022,0.439,7.97,1.838,11.869,3.06
					c6.662,2.089,13.313,4.236,19.869,6.627c4.966,1.812,9.286,4.818,13.181,8.385c4.417,4.046,8.046,8.722,10.646,14.127
					c2.756,5.73,4.34,11.749,4.79,18.153c0.392,5.603-0.631,10.983-1.493,16.424c-0.724,4.577-1.36,9.169-2.151,13.734
					c-1.117,6.433-1.668,13.066-3.673,19.219c-3.367,10.321-11.014,16.315-21.759,18.272c-4.159,0.757-8.251,0.544-12.326-0.498
					C-151.191-799.517-151.441-799.486-151.935-799.51z M-221.876-717.231c2.424-0.526,4.809-1.021,7.183-1.565
					c10.393-2.384,20.623-5.341,30.388-9.653c6.184-2.731,12.232-5.79,16.993-10.829c2.253-2.385,3.526-5.093,3.483-8.435
					c-0.063-5.174-0.017-10.351-0.017-15.526c0-14.097,0.009-28.194-0.027-42.29c-0.002-0.72-0.241-1.535-0.628-2.139
					c-1.449-2.258-3.269-4.313-4.467-6.688c-2.597-5.15-4.886-10.454-7.322-15.686c-3.427-7.361-6.867-14.717-10.314-22.069
					c-3.817-8.151-7.664-16.291-11.469-24.449c-1.779-3.817-2.795-7.889-2.662-12.065c0.096-3.038,0.895-6.063,1.482-9.074
					c0.154-0.791,0.339-1.374-0.491-1.886c-3.62-2.228-7.132-4.651-10.846-6.706c-5.319-2.942-10.997-5.082-16.86-6.693
					c-6.86-1.885-13.833-3.101-20.962-3.111c-22.428-0.034-44.854-0.047-67.282,0c-13.838,0.029-27.675,0.071-41.508,0.354
					c-3.871,0.079-7.754,0.881-11.575,1.634c-6.156,1.214-12.029,3.344-17.738,5.956c-5.184,2.371-10.003,5.33-14.63,8.637
					c-0.677,0.484-0.777,0.942-0.531,1.73c1.231,3.947,2.145,7.967,1.276,12.115c-0.608,2.897-1.122,5.882-2.254,8.587
					c-2.378,5.681-5.129,11.205-7.739,16.789c-4.474,9.572-8.964,19.139-13.433,28.714c-1.592,3.411-3.072,6.875-4.726,10.255
					c-2.082,4.255-3.611,8.869-6.863,12.415c-1.484,1.618-1.662,3.247-1.658,5.191c0.03,18.633,0.032,37.264,0.004,55.896
					c-0.005,3.375,1.212,6.174,3.522,8.566c5.371,5.565,12.195,8.799,19.154,11.727c8.024,3.376,16.347,5.896,24.812,7.921
					c3.497,0.836,7.009,1.603,10.56,2.413c0.073-0.406,0.146-0.599,0.135-0.786c-0.301-5.205,1.261-10.063,2.859-14.891
					c2.74-8.279,6.087-16.298,10.538-23.828c4.912-8.309,10.634-15.938,17.881-22.408c6.122-5.467,12.868-9.881,20.387-13.146
					c0.335-0.146,0.717-0.713,0.698-1.064c-0.36-6.616,4.436-12.073,11.351-11.989c9.906,0.121,19.814,0.03,29.721,0.031
					c6.391,0.002,11.086,4.634,11.029,11.025c-0.012,1.393,0.566,1.988,1.702,2.524c2.563,1.211,5.158,2.396,7.584,3.848
					c6.855,4.101,13.075,9.012,18.185,15.196c2.924,3.541,5.904,7.076,8.441,10.892c5.603,8.428,9.904,17.538,13.034,27.165
					c1.261,3.886,2.236,7.876,3.148,11.862C-221.932-721.023-222.019-719.172-221.876-717.231z M-428.634-905.208
					c-2.312,0.562-4.656,1.011-6.927,1.704c-5.09,1.557-10.101,3.384-15.221,4.828c-8.39,2.368-15.641,6.421-21.051,13.402
					c-4.931,6.362-7.413,13.635-7.452,21.637c-0.015,3.095,0.668,6.201,1.119,9.29c0.782,5.357,1.607,10.709,2.46,16.056
					c0.721,4.526,1.58,9.03,2.249,13.563c1.198,8.114,7.62,13.833,15.796,14.051c5.699,0.152,10.668-2.187,13.658-7.167
					c2.529-4.214,4.382-8.836,6.477-13.304c4.985-10.629,9.935-21.274,14.902-31.911c2.96-6.338,5.976-12.65,8.873-19.017
					c1.294-2.845,1.661-5.815,1.235-9.005C-413.533-898.721-421.061-905.237-428.634-905.208z M-172.189-905.276
					c-0.041,0.125-0.082,0.251-0.123,0.376c-5.267-0.025-9.532,2.214-12.738,6.224c-2.879,3.602-4.407,7.848-3.216,12.479
					c0.794,3.09,2.08,6.079,3.387,9.006c2.592,5.803,5.353,11.532,8.046,17.291c4.475,9.569,8.949,19.14,13.429,28.708
					c1.536,3.278,3.3,6.47,4.575,9.846c2.41,6.375,9.852,11.745,17.453,10.489c7.324-1.209,12.249-5.834,13.799-12.828
					c1.251-5.654,1.87-11.45,2.772-17.183c0.814-5.155,1.521-10.329,2.477-15.457c0.927-4.976,1.093-9.918-0.132-14.831
					c-3.271-13.133-11.289-21.979-24.149-26.309c-5.832-1.963-11.7-3.816-17.576-5.643
					C-166.822-903.926-169.518-904.559-172.189-905.276z M-294.495-737.501c0,9.019,0.017,18.039-0.024,27.059
					c-0.005,1.196,0.354,1.676,1.569,1.963c10.063,2.389,20.12,4.813,30.147,7.344c3.411,0.86,6.835,1.529,10.313,1.089
					c6.07-0.768,11.154-3.519,14.938-8.393c2.414-3.111,3.755-6.783,3.49-10.657c-0.209-3.066-1.158-6.129-2.106-9.09
					c-2.296-7.178-5.197-14.115-8.836-20.734c-3.384-6.155-7.344-11.91-12.09-17.085c-3.959-4.314-8.364-8.163-13.467-11.077
					c-3.006-1.715-6.191-3.121-9.327-4.594c-0.412-0.192-1.271-0.158-1.507,0.122c-1.579,1.861-3.013,3.845-4.554,5.74
					c-2.501,3.076-4.987,6.167-7.613,9.131c-0.647,0.73-0.953,1.33-0.951,2.27C-294.485-755.442-294.497-746.472-294.495-737.501z
					 M-306.407-737.353c0-9.066,0.007-18.135-0.017-27.203c-0.002-0.535-0.104-1.197-0.42-1.589
					c-3.383-4.176-6.904-8.242-10.212-12.477c-2.708-3.465-2.602-3.548-6.671-1.996c-0.273,0.104-0.538,0.233-0.802,0.361
					c-7.732,3.726-14.406,8.797-20.098,15.258c-4.364,4.95-8.097,10.31-11.231,16.075c-4.073,7.492-7.321,15.34-9.753,23.529
					c-0.946,3.184-1.5,6.363-0.915,9.639c0.749,4.195,2.895,7.57,6.135,10.357c5.599,4.816,12.093,6.528,19.159,4.97
					c11.097-2.446,22.088-5.363,33.143-8.004c1.321-0.314,1.718-0.837,1.71-2.161C-306.432-719.512-306.407-728.432-306.407-737.353
					z"/>
				<path fill="#161616" d="M-323.063-879.361c5.591,0.179,10.24,2.411,14.302,6.083c1.234,1.115,2.464,2.26,3.825,3.202
					c3.169,2.193,6.612,2.04,9.652-0.365c2.262-1.79,4.33-3.854,6.713-5.455c7.858-5.279,17.167-4.096,24.103,1.965
					c1.586,1.386,3.055,2.946,4.788,4.108c1.194,0.799,2.727,1.358,4.154,1.479c2.499,0.211,4.595,0.921,5.534,3.356
					c0.977,2.528,0.833,5.133-1.187,7.125c-2.015,1.988-4.674,2.082-7.322,1.642c-4.14-0.689-7.594-2.72-10.637-5.55
					c-1.182-1.099-2.424-2.139-3.699-3.127c-3.447-2.669-7.539-2.376-10.836,0.526c-2.195,1.933-4.438,3.874-6.903,5.429
					c-5.255,3.314-10.918,3.706-16.726,1.536c-3.07-1.147-5.647-3.076-8.027-5.303c-1.033-0.965-2.093-1.957-3.297-2.673
					c-4.323-2.565-7.571-1.482-10.771,1.581c-2.537,2.429-5.131,4.74-8.364,6.142c-3.081,1.336-6.301,2.252-9.69,1.18
					c-2.616-0.827-4.518-3.665-4.188-6.067c0.46-3.352,2.716-5.639,5.871-5.698c2.475-0.046,4.395-1.031,6.109-2.732
					c3.541-3.519,7.349-6.655,12.41-7.734C-325.872-879.006-324.46-879.149-323.063-879.361z"/>
				<path fill="#161616" d="M-235.093-800.648c0.282-3.215,0.289-6.486,0.91-9.635c1.136-5.761,6.71-10.358,12.55-11.316
					c6.619-1.087,13.323,2.391,16.372,8.143c1.288,2.426,1.767,5.077,1.839,7.778c0.092,3.35,0.097,6.705,0.007,10.056
					c-0.178,6.543-2.941,11.677-8.877,14.649c-5.211,2.608-12.013,2.018-16.719-1.897c-4.022-3.349-5.815-7.601-5.82-12.726
					c0-1.677,0-3.354,0-5.028C-234.917-800.633-235.006-800.641-235.093-800.648z"/>
				<path fill="#161616" d="M-397.207-800.478c0-2.217-0.001-4.435,0-6.651c0.002-5.813,4.252-11.583,9.749-13.588
					c5.288-1.93,10.244-1.384,14.779,1.819c4.194,2.961,6.499,7.118,6.595,12.329c0.067,3.744-0.041,7.491,0.024,11.233
					c0.123,7.146-4.429,13.445-11.339,15.333c-9.09,2.482-18.148-3.092-19.723-12.356c-0.446-2.635-0.067-5.408-0.067-8.119
					C-397.195-800.478-397.202-800.478-397.207-800.478z"/>
			</g>
		</g>
		<rect x="-482.505" y="-1006.371" fill="none" width="237.024" height="90.009"/>
		<text transform="matrix(1 0 0 1 -482.5068 -971.1035)" font-family="'Helvetica'" font-size="49">OLD</text>
	</g>
	<g display="inline">
		<path fill="#F8F5E2" d="M-88.155-213.497c0,31.811-25.788,57.6-57.6,57.6h-309.279c-31.812,0-57.601-25.789-57.601-57.6v-309.279
			c0-31.812,25.789-57.6,57.601-57.6h309.279c31.812,0,57.6,25.788,57.6,57.6V-213.497z"/>
		<g>
			<path fill="#00A86B" d="M-151.935-359.672c0,0.73,0,1.397,0,2.064c0,17.005-0.06,34.01,0.036,51.016
				c0.027,5.009-1.612,9.289-4.626,13.145c-3.745,4.788-8.538,8.339-13.741,11.354c-7.188,4.159-14.87,7.197-22.749,9.73
				c-9.156,2.947-18.468,5.317-27.95,7.004c-1.391,0.248-2.792,0.495-4.14,0.902c-0.522,0.156-1.028,0.685-1.333,1.174
				c-3.336,5.3-7.965,9.128-13.518,11.88c-3.485,1.726-7.209,2.628-11.06,3.201c-6.4,0.951-12.415-0.76-18.493-2.26
				c-10.138-2.502-20.291-4.939-30.446-7.368c-0.527-0.127-1.151,0.018-1.703,0.152c-9.389,2.278-18.765,4.615-28.164,6.853
				c-4.408,1.049-8.823,2.235-13.304,2.775c-5.052,0.61-10.043-0.342-14.842-2.133c-7.024-2.621-12.625-6.986-16.633-13.364
				c-0.268-0.425-0.825-0.837-1.312-0.932c-11.502-2.249-22.968-4.676-34.022-8.623c-5.879-2.099-11.678-4.505-17.307-7.2
				c-5.849-2.802-11.247-6.421-15.604-11.336c-3.769-4.253-6.189-9.04-6.156-14.963c0.096-16.955,0.034-33.911,0.034-50.867
				c0-0.682,0-1.361,0-2.326c-1.031,0.24-1.847,0.474-2.678,0.616c-6.861,1.173-13.49,0.438-19.6-2.98
				c-7.902-4.423-12.667-11.161-14.113-20.175c-0.734-4.573-1.558-9.132-2.294-13.705c-0.745-4.624-1.418-9.259-2.144-13.886
				c-0.461-2.938-1.22-5.857-1.379-8.811c-0.196-3.641-0.242-7.354,0.263-10.949c0.545-3.882,1.518-7.764,2.818-11.465
				c1.726-4.913,4.476-9.313,7.854-13.338c4.562-5.434,9.996-9.745,16.486-12.483c5.116-2.16,10.481-3.738,15.758-5.506
				c3.565-1.194,7.17-2.269,10.757-3.397c9.434-2.971,18.059-1.217,25.991,4.482c0.867,0.623,1.619,1.407,2.278,1.989
				c4.041-2.462,7.866-4.914,11.806-7.165c5.581-3.186,11.486-5.687,17.665-7.438c4.265-1.209,8.596-2.231,12.95-3.058
				c3.204-0.606,6.491-1.058,9.744-1.073c36.363-0.17,72.725-0.309,109.089-0.268c4.946,0.006,9.915,0.894,14.837,1.618
				c7.086,1.045,13.871,3.234,20.469,5.995c6.706,2.805,13.017,6.329,18.912,10.588c0.397,0.286,0.809,0.551,1.326,0.901
				c0.897-0.696,1.817-1.399,2.729-2.114c5.745-4.516,12.359-6.493,19.525-5.711c4.022,0.439,7.97,1.838,11.869,3.06
				c6.662,2.089,13.313,4.236,19.869,6.627c4.966,1.812,9.286,4.818,13.181,8.385c4.417,4.046,8.046,8.722,10.646,14.127
				c2.756,5.729,4.34,11.749,4.79,18.153c0.392,5.603-0.631,10.983-1.493,16.424c-0.724,4.577-1.36,9.169-2.151,13.734
				c-1.117,6.433-1.668,13.066-3.673,19.219c-3.367,10.321-11.014,16.316-21.759,18.273c-4.159,0.757-8.251,0.544-12.326-0.498
				C-151.191-359.679-151.441-359.648-151.935-359.672z M-221.876-277.394c2.424-0.526,4.809-1.021,7.183-1.565
				c10.393-2.384,20.623-5.341,30.388-9.653c6.184-2.729,12.232-5.79,16.993-10.829c2.253-2.385,3.526-5.093,3.483-8.435
				c-0.063-5.174-0.017-10.351-0.017-15.526c0-14.097,0.009-28.194-0.027-42.29c-0.002-0.72-0.241-1.535-0.628-2.139
				c-1.449-2.258-3.269-4.313-4.467-6.688c-2.597-5.15-4.886-10.454-7.322-15.686c-3.427-7.361-6.867-14.717-10.314-22.069
				c-3.817-8.151-7.664-16.291-11.469-24.449c-1.779-3.817-2.795-7.889-2.662-12.065c0.096-3.038,0.895-6.063,1.482-9.074
				c0.154-0.791,0.339-1.374-0.491-1.886c-3.62-2.228-7.132-4.651-10.846-6.706c-5.319-2.942-10.997-5.082-16.86-6.693
				c-6.86-1.885-13.833-3.101-20.962-3.111c-22.428-0.034-44.854-0.047-67.282,0c-13.838,0.029-27.675,0.071-41.508,0.355
				c-3.871,0.079-7.754,0.881-11.575,1.634c-6.156,1.214-12.029,3.344-17.738,5.956c-5.184,2.371-10.003,5.33-14.63,8.637
				c-0.677,0.484-0.777,0.942-0.531,1.732c1.231,3.947,2.145,7.967,1.276,12.115c-0.608,2.897-1.122,5.882-2.254,8.587
				c-2.378,5.681-5.129,11.205-7.739,16.789c-4.474,9.572-8.964,19.139-13.433,28.714c-1.592,3.411-3.072,6.875-4.726,10.255
				c-2.082,4.255-3.611,8.869-6.863,12.415c-1.484,1.618-1.662,3.247-1.658,5.191c0.03,18.633,0.032,37.264,0.004,55.896
				c-0.005,3.375,1.212,6.174,3.522,8.566c5.371,5.565,12.195,8.799,19.154,11.727c8.024,3.376,16.347,5.896,24.812,7.921
				c3.497,0.836,7.009,1.603,10.56,2.413c0.073-0.406,0.146-0.599,0.135-0.786c-0.301-5.205,1.261-10.063,2.859-14.891
				c2.74-8.279,6.087-16.298,10.538-23.828c4.912-8.309,10.634-15.938,17.881-22.408c6.122-5.467,12.868-9.881,20.387-13.146
				c0.335-0.146,0.717-0.713,0.698-1.064c-0.36-6.616,4.436-12.073,11.351-11.989c9.906,0.121,19.814,0.03,29.721,0.031
				c6.391,0.002,11.086,4.634,11.029,11.025c-0.012,1.393,0.566,1.988,1.702,2.524c2.563,1.211,5.158,2.396,7.584,3.848
				c6.855,4.101,13.075,9.012,18.185,15.196c2.924,3.541,5.904,7.076,8.441,10.892c5.603,8.428,9.904,17.538,13.034,27.165
				c1.261,3.886,2.236,7.876,3.148,11.862C-221.932-281.186-222.019-279.334-221.876-277.394z M-428.634-465.37
				c-2.312,0.562-4.656,1.011-6.927,1.704c-5.09,1.557-10.101,3.384-15.221,4.828c-8.39,2.368-15.641,6.421-21.051,13.402
				c-4.931,6.362-7.413,13.635-7.452,21.637c-0.015,3.095,0.668,6.201,1.119,9.29c0.782,5.357,1.607,10.709,2.46,16.056
				c0.721,4.526,1.58,9.03,2.249,13.563c1.198,8.114,7.62,13.833,15.796,14.051c5.699,0.152,10.668-2.185,13.658-7.167
				c2.529-4.214,4.382-8.836,6.477-13.304c4.985-10.629,9.935-21.274,14.902-31.911c2.96-6.338,5.976-12.65,8.873-19.019
				c1.294-2.845,1.661-5.813,1.235-9.005C-413.533-458.883-421.061-465.399-428.634-465.37z M-172.189-465.438
				c-0.041,0.125-0.082,0.251-0.123,0.376c-5.267-0.025-9.532,2.214-12.738,6.224c-2.879,3.602-4.407,7.848-3.216,12.481
				c0.794,3.09,2.08,6.079,3.387,9.006c2.592,5.803,5.353,11.532,8.046,17.291c4.475,9.569,8.949,19.14,13.429,28.708
				c1.536,3.278,3.3,6.47,4.575,9.846c2.41,6.375,9.852,11.745,17.453,10.489c7.324-1.209,12.249-5.834,13.799-12.828
				c1.251-5.654,1.87-11.45,2.772-17.183c0.814-5.155,1.521-10.329,2.477-15.457c0.927-4.976,1.093-9.918-0.132-14.831
				c-3.271-13.133-11.289-21.98-24.149-26.309c-5.832-1.963-11.7-3.816-17.576-5.643
				C-166.822-464.088-169.518-464.721-172.189-465.438z M-294.495-297.663c0,9.019,0.017,18.039-0.024,27.059
				c-0.005,1.196,0.354,1.676,1.569,1.963c10.063,2.389,20.12,4.813,30.147,7.344c3.411,0.86,6.835,1.529,10.313,1.089
				c6.07-0.768,11.154-3.519,14.938-8.393c2.414-3.111,3.755-6.783,3.49-10.657c-0.209-3.066-1.158-6.129-2.106-9.09
				c-2.296-7.178-5.197-14.115-8.836-20.734c-3.384-6.155-7.344-11.91-12.09-17.085c-3.959-4.314-8.364-8.163-13.467-11.077
				c-3.006-1.715-6.191-3.121-9.327-4.594c-0.412-0.192-1.271-0.158-1.507,0.122c-1.579,1.861-3.013,3.845-4.554,5.74
				c-2.501,3.076-4.987,6.167-7.613,9.131c-0.647,0.729-0.953,1.33-0.951,2.27C-294.485-315.604-294.497-306.634-294.495-297.663z
				 M-306.407-297.515c0-9.066,0.007-18.135-0.017-27.203c-0.002-0.535-0.104-1.197-0.42-1.589
				c-3.383-4.176-6.904-8.242-10.212-12.477c-2.708-3.465-2.602-3.548-6.671-1.996c-0.273,0.104-0.538,0.233-0.802,0.361
				c-7.732,3.726-14.406,8.797-20.098,15.258c-4.364,4.95-8.097,10.31-11.231,16.075c-4.073,7.492-7.321,15.34-9.753,23.529
				c-0.946,3.184-1.5,6.363-0.915,9.639c0.749,4.195,2.895,7.57,6.135,10.357c5.599,4.816,12.093,6.528,19.159,4.97
				c11.097-2.446,22.088-5.363,33.143-8.004c1.321-0.314,1.718-0.837,1.71-2.161C-306.432-279.674-306.407-288.594-306.407-297.515z
				"/>
			<path fill="#00A86B" d="M-323.063-439.523c5.591,0.179,10.24,2.411,14.302,6.083c1.234,1.115,2.464,2.26,3.825,3.202
				c3.169,2.193,6.612,2.04,9.652-0.365c2.262-1.79,4.33-3.854,6.713-5.455c7.858-5.279,17.167-4.096,24.103,1.965
				c1.586,1.386,3.055,2.946,4.788,4.11c1.194,0.799,2.727,1.358,4.154,1.479c2.499,0.211,4.595,0.921,5.534,3.356
				c0.977,2.528,0.833,5.133-1.187,7.125c-2.015,1.988-4.674,2.082-7.322,1.642c-4.14-0.689-7.594-2.72-10.637-5.55
				c-1.182-1.099-2.424-2.139-3.699-3.127c-3.447-2.669-7.539-2.376-10.836,0.526c-2.195,1.933-4.438,3.874-6.903,5.429
				c-5.255,3.314-10.918,3.706-16.726,1.536c-3.07-1.147-5.647-3.076-8.027-5.303c-1.033-0.965-2.093-1.957-3.297-2.673
				c-4.323-2.565-7.571-1.482-10.771,1.581c-2.537,2.429-5.131,4.74-8.364,6.142c-3.081,1.336-6.301,2.252-9.69,1.18
				c-2.616-0.827-4.518-3.665-4.188-6.067c0.46-3.352,2.716-5.639,5.871-5.698c2.475-0.046,4.395-1.031,6.109-2.734
				c3.541-3.517,7.349-6.655,12.41-7.734C-325.872-439.168-324.46-439.312-323.063-439.523z"/>
			<path fill="#00A86B" d="M-235.093-360.811c0.282-3.215,0.289-6.486,0.91-9.635c1.136-5.761,6.71-10.356,12.55-11.314
				c6.619-1.087,13.323,2.391,16.372,8.143c1.288,2.426,1.767,5.077,1.839,7.778c0.092,3.35,0.097,6.705,0.007,10.056
				c-0.178,6.543-2.941,11.677-8.877,14.649c-5.211,2.61-12.013,2.018-16.719-1.897c-4.022-3.349-5.815-7.601-5.82-12.726
				c0-1.677,0-3.354,0-5.028C-234.917-360.795-235.006-360.803-235.093-360.811z"/>
			<path fill="#00A86B" d="M-397.207-360.64c0-2.217-0.001-4.435,0-6.651c0.002-5.813,4.252-11.583,9.749-13.588
				c5.288-1.93,10.244-1.384,14.779,1.819c4.194,2.961,6.499,7.118,6.595,12.329c0.067,3.744-0.041,7.491,0.024,11.233
				c0.123,7.146-4.429,13.445-11.339,15.333c-9.09,2.482-18.148-3.092-19.723-12.356c-0.446-2.635-0.067-5.408-0.067-8.119
				C-397.195-360.64-397.202-360.64-397.207-360.64z"/>
		</g>
		<rect x="-482.505" y="-561.579" fill="none" width="237.024" height="90.009"/>
		<text transform="matrix(1 0 0 1 -482.5068 -526.3125)" fill="#00A86B" font-family="'Helvetica'" font-size="49">OLD</text>
	</g>
	<g display="inline">
		<g>
			<path fill="#00A86B" d="M-88.155,224.844c0,31.811-25.788,57.6-57.6,57.6h-309.279c-31.812,0-57.601-25.789-57.601-57.6v-309.28
				c0-31.812,25.789-57.6,57.601-57.6h309.279c31.812,0,57.6,25.788,57.6,57.6V224.844z"/>
			<path fill="#190E09" d="M-165.116,77.918c0,0.666,0,1.273,0,1.881c0,15.496-0.055,30.99,0.033,46.486
				c0.024,4.564-1.47,8.465-4.216,11.977c-3.412,4.365-7.779,7.6-12.521,10.346c-6.549,3.791-13.55,6.559-20.729,8.867
				c-8.343,2.688-16.829,4.848-25.468,6.383c-1.268,0.227-2.544,0.451-3.772,0.822c-0.477,0.143-0.937,0.625-1.215,1.07
				c-3.04,4.83-7.258,8.316-12.317,10.824c-3.177,1.572-6.569,2.395-10.078,2.916c-5.832,0.869-11.313-0.689-16.852-2.057
				c-9.237-2.281-18.487-4.502-27.741-6.715c-0.48-0.115-1.05,0.018-1.552,0.141c-8.556,2.074-17.099,4.203-25.663,6.244
				c-4.019,0.953-8.041,2.035-12.125,2.527c-4.604,0.555-9.149-0.311-13.523-1.943c-6.399-2.387-11.504-6.365-15.155-12.178
				c-0.244-0.387-0.752-0.762-1.195-0.85c-10.48-2.049-20.931-4.26-31.002-7.855c-5.358-1.914-10.642-4.105-15.771-6.563
				c-5.33-2.553-10.248-5.85-14.218-10.328c-3.435-3.875-5.641-8.238-5.609-13.637c0.088-15.449,0.03-30.9,0.03-46.35
				c0-0.621,0-1.24,0-2.121c-0.939,0.221-1.682,0.432-2.439,0.563c-6.252,1.07-12.292,0.4-17.86-2.717
				c-7.201-4.027-11.543-10.17-12.861-18.383c-0.668-4.168-1.418-8.322-2.09-12.488c-0.678-4.213-1.291-8.438-1.953-12.654
				c-0.42-2.678-1.113-5.336-1.258-8.027c-0.178-3.318-0.219-6.699,0.24-9.977c0.497-3.537,1.383-7.074,2.568-10.447
				c1.572-4.479,4.078-8.486,7.158-12.154c4.156-4.949,9.108-8.879,15.022-11.377c4.66-1.967,9.549-3.406,14.358-5.018
				c3.249-1.088,6.532-2.066,9.801-3.094c8.597-2.707,16.455-1.111,23.685,4.084c0.789,0.566,1.474,1.281,2.074,1.813
				c3.683-2.244,7.168-4.479,10.76-6.529c5.085-2.904,10.466-5.182,16.096-6.777c3.886-1.104,7.834-2.033,11.802-2.787
				c2.919-0.553,5.914-0.963,8.878-0.979c33.134-0.154,66.268-0.277,99.403-0.24c4.507,0.004,9.034,0.813,13.52,1.473
				c6.457,0.953,12.64,2.949,18.651,5.465c6.11,2.555,11.861,5.766,17.232,9.646c0.361,0.262,0.736,0.504,1.208,0.82
				c0.818-0.633,1.656-1.273,2.487-1.926c5.235-4.113,11.263-5.916,17.792-5.203c3.665,0.4,7.262,1.676,10.814,2.787
				c6.071,1.904,12.131,3.861,18.105,6.041c4.525,1.648,8.462,4.389,12.011,7.639c4.024,3.686,7.332,7.947,9.701,12.871
				c2.511,5.223,3.954,10.709,4.364,16.543c0.357,5.105-0.574,10.01-1.359,14.967c-0.66,4.168-1.24,8.354-1.961,12.514
				c-1.018,5.863-1.521,11.908-3.348,17.514c-3.068,9.405-10.036,14.87-19.827,16.653c-3.79,0.688-7.519,0.494-11.231-0.455
				C-164.438,77.912-164.666,77.939-165.116,77.918z"/>
			<path fill="#E1D5C5" d="M-175.958,125.115c0.045,3.043-1.123,5.512-3.167,7.691c-4.346,4.582-9.848,7.379-15.485,9.859
				c-8.904,3.93-18.225,6.625-27.691,8.805c-2.168,0.492-4.334,0.943-6.547,1.426c-0.123-1.775-0.045-3.459-0.415-5.043
				c-0.831-3.637-1.719-7.275-2.863-10.813c-2.853-8.771-6.771-17.07-11.881-24.75c-2.314-3.482-5.021-6.705-7.693-9.928
				c-4.648-5.637-10.319-10.107-16.563-13.846c-2.212-1.326-4.582-2.404-6.917-3.504c-0.898-0.428-1.415-0.889-1.526-1.83v-0.059
				c-0.023-0.133-0.023-0.268-0.023-0.414c0.056-5.828-4.223-10.049-10.051-10.049c-9.017,0-18.045,0.09-27.073-0.025
				c-6.312-0.078-10.68,4.898-10.343,10.928c0,0.057-0.011,0.123-0.023,0.18c-0.09,0.303-0.37,0.674-0.617,0.785
				c-6.85,2.977-13.004,6.996-18.573,11.982c-6.603,5.896-11.825,12.848-16.294,20.416c-4.055,6.861-7.108,14.172-9.601,21.719
				c-1.46,4.391-2.887,8.826-2.606,13.564c0,0.168-0.056,0.348-0.123,0.719c-3.245-0.742-6.435-1.438-9.623-2.201
				c-7.715-1.842-15.295-4.143-22.617-7.221c-6.333-2.66-12.555-5.613-17.451-10.678c-2.099-2.18-3.211-4.74-3.211-7.805
				c0.033-16.98,0.022-33.961,0-50.938c0-1.775,0.157-3.258,1.516-4.729c2.953-3.234,4.346-7.445,6.244-11.32
				c1.516-3.076,2.863-6.23,4.313-9.344c4.076-8.725,8.163-17.438,12.239-26.162c2.381-5.088,4.886-10.119,7.053-15.297
				c1.033-2.469,1.504-5.188,2.055-7.826c0.786-3.785-0.045-7.445-1.168-11.037c-0.225-0.721-0.135-1.135,0.482-1.584
				c4.224-3.01,8.613-5.705,13.341-7.871c5.2-2.383,10.545-4.313,16.16-5.426c3.48-0.684,7.019-1.414,10.544-1.482
				c12.611-0.27,25.211-0.303,37.821-0.324c20.438-0.045,40.875-0.035,61.313,0c6.491,0.012,12.846,1.111,19.101,2.83
				c5.346,1.471,10.512,3.424,15.362,6.098c3.381,1.875,6.581,4.086,9.883,6.107c0.752,0.471,0.583,1,0.448,1.719
				c-0.538,2.752-1.269,5.502-1.348,8.275c-0.123,3.809,0.798,7.512,2.426,10.994c3.459,7.434,6.962,14.846,10.444,22.281
				c3.144,6.691,6.277,13.396,9.397,20.109c2.225,4.762,4.313,9.602,6.671,14.285c1.101,2.166,2.752,4.041,4.076,6.098
				c0.349,0.549,0.573,1.292,0.573,1.954c0.033,12.836,0.022,25.684,0.022,38.529C-175.969,115.682-176.014,120.398-175.958,125.115
				z"/>
			<path fill="#352218" d="M-417.248-18.397c-2.107,0.512-4.243,0.922-6.312,1.553c-4.639,1.418-9.205,3.084-13.87,4.4
				c-7.646,2.156-14.252,5.85-19.183,12.211c-4.493,5.797-6.755,12.426-6.79,19.717c-0.014,2.82,0.609,5.652,1.02,8.465
				c0.713,4.883,1.465,9.758,2.24,14.629c0.658,4.127,1.441,8.23,2.051,12.359c1.091,7.396,6.943,12.607,14.394,12.805
				c5.193,0.139,9.722-1.992,12.447-6.531c2.303-3.838,3.991-8.053,5.901-12.123c4.543-9.686,9.052-19.383,13.579-29.078
				c2.697-5.775,5.445-11.525,8.085-17.326c1.179-2.592,1.513-5.299,1.125-8.207C-403.489-12.485-410.347-18.422-417.248-18.397z"/>
			<path fill="#352218" d="M-183.572-18.459c-0.037,0.115-0.075,0.23-0.112,0.344c-4.799-0.023-8.685,2.016-11.606,5.67
				c-2.623,3.281-4.016,7.152-2.931,11.373c0.724,2.816,1.896,5.541,3.086,8.207c2.362,5.289,4.878,10.51,7.332,15.756
				c4.077,8.719,8.155,17.439,12.236,26.158c1.399,2.99,3.007,5.896,4.17,8.973c2.195,5.809,8.977,10.703,15.903,9.559
				c6.674-1.102,11.161-5.316,12.574-11.689c1.141-5.152,1.704-10.434,2.526-15.656c0.741-4.697,1.386-9.414,2.257-14.086
				c0.845-4.535,0.996-9.037-0.121-13.514c-2.98-11.967-10.286-20.029-22.005-23.975c-5.314-1.789-10.661-3.477-16.015-5.143
				C-178.681-17.229-181.137-17.805-183.572-18.459z"/>
			<path fill="#352218" d="M-243.133,160.902c-3.446,4.447-8.073,6.951-13.61,7.648c-3.166,0.404-6.288-0.203-9.398-0.988
				c-9.131-2.314-18.293-4.516-27.467-6.693c-1.112-0.27-1.438-0.695-1.427-1.785c0.034-8.221,0.022-16.441,0.022-24.66
				c-0.012-8.176,0-16.352-0.022-24.525c0-0.314,0.045-0.596,0.124-0.854c0.135-0.428,0.37-0.797,0.741-1.213
				c2.402-2.707,4.659-5.525,6.939-8.322c1.403-1.729,2.717-3.535,4.155-5.23c0.09-0.113,0.291-0.182,0.516-0.215h0.012
				c0.303-0.021,0.641,0.012,0.842,0.102c2.853,1.348,5.761,2.627,8.501,4.189c4.649,2.648,8.658,6.164,12.273,10.094
				c4.323,4.717,7.928,9.961,11.016,15.564c3.313,6.031,5.953,12.352,8.052,18.898c0.865,2.697,1.719,5.48,1.909,8.277
				C-239.708,154.727-240.932,158.072-243.133,160.902z"/>
			<path fill="#352218" d="M-305.85,158.938c0.011,1.213-0.348,1.686-1.55,1.977c-10.072,2.402-20.09,5.064-30.207,7.289
				c-6.435,1.426-12.353-0.135-17.462-4.527c-2.942-2.537-4.907-5.613-5.581-9.443c-0.539-2.977-0.034-5.873,0.831-8.781
				c2.212-7.457,5.177-14.609,8.882-21.438c2.864-5.256,6.267-10.141,10.241-14.643c5.188-5.896,11.264-10.512,18.305-13.902
				c0.247-0.125,0.483-0.236,0.741-0.338c1.898-0.719,2.796-1.055,3.549-0.785c0.718,0.258,1.313,1.057,2.526,2.605
				c3.009,3.861,6.221,7.568,9.31,11.375c0.078,0.09,0.135,0.201,0.19,0.326c0.135,0.336,0.18,0.764,0.19,1.123
				c0.023,8.252,0.012,16.518,0.012,24.783C-305.873,142.688-305.895,150.818-305.85,158.938z"/>
			<path fill="#352218" d="M-321.05,5.154c5.095,0.164,9.332,2.199,13.033,5.545c1.124,1.016,2.245,2.059,3.485,2.918
				c2.888,1.998,6.024,1.859,8.794-0.334c2.062-1.631,3.945-3.512,6.118-4.971c7.16-4.811,15.642-3.732,21.962,1.791
				c1.445,1.264,2.783,2.684,4.362,3.746c1.088,0.729,2.485,1.236,3.786,1.346c2.276,0.193,4.187,0.84,5.042,3.059
				c0.891,2.305,0.759,4.678-1.081,6.494c-1.836,1.811-4.26,1.896-6.672,1.496c-3.772-0.631-6.92-2.479-9.692-5.059
				c-1.077-1.002-2.208-1.949-3.371-2.85c-3.141-2.432-6.869-2.164-9.874,0.479c-2,1.762-4.044,3.531-6.29,4.949
				c-4.787,3.02-9.947,3.377-15.24,1.398c-2.797-1.045-5.146-2.803-7.315-4.832c-0.94-0.879-1.906-1.783-3.005-2.434
				c-3.938-2.338-6.897-1.352-9.813,1.438c-2.313,2.213-4.677,4.322-7.622,5.598c-2.807,1.217-5.742,2.053-8.83,1.074
				c-2.384-0.754-4.117-3.338-3.817-5.529c0.421-3.053,2.477-5.137,5.35-5.191c2.255-0.041,4.006-0.938,5.567-2.49
				c3.227-3.205,6.696-6.064,11.309-7.047C-323.609,5.48-322.323,5.347-321.05,5.154z"/>
			<path d="M-240.891,76.881c0.257-2.93,0.264-5.91,0.829-8.78c1.035-5.25,6.115-9.439,11.436-10.313
				c6.032-0.988,12.141,2.178,14.919,7.42c1.174,2.211,1.61,4.625,1.676,7.088c0.083,3.051,0.088,6.109,0.007,9.162
				c-0.162,5.963-2.681,10.641-8.089,13.35c-4.749,2.379-10.946,1.838-15.234-1.73c-3.665-3.051-5.299-6.924-5.304-11.596
				c0-1.525,0-3.055,0-4.582C-240.731,76.895-240.812,76.889-240.891,76.881z"/>
			<path d="M-388.612,77.037c0-2.02,0-4.043,0-6.063c0.002-5.297,3.876-10.553,8.883-12.381c4.818-1.758,9.335-1.262,13.468,1.658
				c3.822,2.697,5.921,6.486,6.009,11.235c0.063,3.412-0.036,6.824,0.021,10.236c0.112,6.512-4.035,12.25-10.331,13.971
				c-8.283,2.264-16.537-2.816-17.972-11.258c-0.407-2.402-0.063-4.93-0.063-7.398C-388.601,77.037-388.606,77.037-388.612,77.037z"
				/>
		</g>
		<g>
			<rect x="-418.907" y="-126.317" fill="none" width="237.024" height="90.009"/>
			<text transform="matrix(1 0 0 1 -418.9082 -91.0508)" fill="#F8F5E2" font-family="'Helvetica'" font-size="49">OLD</text>
		</g>
	</g>
</g>
<g id="Layer_7" display="none">
	<g display="inline">
		<path fill="#161616" d="M-1250.9-781.023c-3.72,16.95-12.86,35.63-23.19,47.08l-2.15,48.53c-0.11,29.65-35.2,48.23-72.49,58.99
			c-4.51,9.56-15.1,16.56-39.97,18.07c-0.46,0.02-0.92,0.04-1.37,0.04c-6.29,0-12.1-2.6-17.29-6.85h-0.01
			c-0.91-0.74-1.8-1.53-2.66-2.37c-0.03-0.03-0.06-0.06-0.09-0.09c-1.67,1.46-3.58,2.74-5.73,3.81c-3.36,1.68-7.17,2.57-11.05,2.57
			c-5.85,0-11.48-2.01-15.85-5.64c-0.44-0.36-0.86-0.74-1.27-1.13c-1.13,1.09-2.3,2.08-3.47,2.979c-5.36,4.15-11.06,6.44-16.83,6.68
			c-1.74,0.07-3.45,0.11-5.07,0.11c-14.78,0-24.58-2.94-30.87-9.26c-2.6-2.62-4.37-5.61-5.55-8.83c-3.29-0.96-6.55-1.98-9.76-3.06
			c-40.38-13.6-61.76-32.97-61.85-56.02l-2.15-48.51c-10.32-11.45-19.46-30.16-23.19-47.12c-6.06-27.61,1.61-48.59,21.07-57.57
			c15.5-7.16,60.21-11,81.05-12.45c0,0,0.01,0.01,0.02,0c3.45-0.43,42.21-6.6,73.04-6.6c29.79,0,71.07,6.17,74.54,6.6
			c0,0,0,0,0.01,0c20.82,1.45,65.55,5.29,81.07,12.45C-1252.51-829.633-1244.83-808.643-1250.9-781.023z"/>
		<path fill="#161616" d="M-1271.96-838.613c-15.52-7.16-60.25-11-81.07-12.45c-0.01,0-0.01,0-0.01,0
			c-3.47-0.43-44.75-6.6-74.54-6.6c-30.83,0-69.59,6.17-73.04,6.6c-0.01,0.01-0.02,0-0.02,0c-20.84,1.45-65.55,5.29-81.05,12.45
			c-19.46,8.98-27.13,29.96-21.07,57.57c3.729,16.96,12.87,35.67,23.188,47.12l2.15,48.51c0.09,23.05,21.47,42.42,61.85,56.02
			c3.21,1.08,6.47,2.1,9.76,3.06c1.18,3.22,2.95,6.21,5.55,8.83c6.29,6.32,16.09,9.26,30.87,9.26c1.62,0,3.33-0.04,5.07-0.11
			c5.771-0.24,11.47-2.53,16.83-6.68c1.17-0.898,2.34-1.89,3.47-2.979c0.41,0.39,0.83,0.77,1.27,1.13c4.37,3.63,10,5.64,15.85,5.64
			c3.88,0,7.69-0.89,11.05-2.57c2.15-1.07,4.06-2.35,5.73-3.81c0.03,0.03,0.06,0.06,0.09,0.09c0.86,0.84,1.75,1.63,2.66,2.37h0.01
			c5.19,4.25,11,6.85,17.29,6.85c0.45,0,0.91-0.02,1.37-0.04c24.87-1.51,35.46-8.51,39.97-18.07
			c37.29-10.76,72.38-29.34,72.49-58.99l2.15-48.53c10.33-11.45,19.47-30.13,23.188-47.08
			C-1244.83-808.643-1252.51-829.633-1271.96-838.613z M-1580.55-756.003c-4.32-7.75-8.21-17.21-10.49-27.61
			c-2.79-12.71-4.63-35.33,14.37-44.108c6.39-2.94,19.81-5.392,34.58-7.3c8.67-1.11,17.81-2.05,26.26-2.8
			c-1.27,1.26-2.47,2.58-3.6,3.95c-12.91,15.6-17.3,37.81-21.08,56.95c-4.87,24.65-8.68,39.76-20.54,41.83
			c-0.03,0.01-0.09,0.02-0.17,0.02c-1.61,0-3.91-1.33-6.56-3.76C-1571.67-742.413-1576.31-748.383-1580.55-756.003z
			 M-1440.12-644.253c-2.87,6.04-6.44,11.65-10.43,15.91c-0.03,0.03-0.062,0.07-0.1,0.1c-0.21,0.25-0.44,0.48-0.67,0.71
			c-4.2,4.26-8.81,7-13.5,7.19c-1.58,0.07-3.11,0.1-4.57,0.1c-11.06,0-18.58-1.92-22.36-5.72c-2.41-2.43-3.54-5.9-4.07-10.05
			c-0.48-3.76-0.45-8.08-0.43-12.7c0.01-1.09,0.02-2.19,0.02-3.3c0-28.4,26.67-43.062,48.28-49.05h0.01
			c4.66,4.81,10.55,8.53,15.04,9.45v19.68c0,3.44-0.5,7.3-1.44,11.33c-0.01,0.06-0.03,0.13-0.04,0.19
			c-1.23,5.24-3.17,10.75-5.64,15.96C-1440.05-644.383-1440.08-644.323-1440.12-644.253z M-1421.22-624.543
			c-1.7,0.85-3.66,1.3-5.68,1.3c-3.05,0-5.96-1.02-8.18-2.87c-0.41-0.35-0.8-0.7-1.16-1.06c0.02-0.021,0.03-0.05,0.05-0.07
			c1.17-1.69,2.32-3.49,3.43-5.4c2.229-3.82,4.2-7.86,5.86-11.98c2.39,6.2,5.47,12.33,9.12,17.72
			C-1418.75-625.993-1419.89-625.213-1421.22-624.543z M-1358.17-636.193c-0.5,2.63-1.34,4.9-2.73,6.75
			c-3.88,5.2-13.22,8.18-28.53,9.11c-0.21,0.01-0.43,0.02-0.64,0.02c-4.54,0-9.04-2.8-13.15-7.23c-0.04-0.04-0.08-0.09-0.12-0.13
			c-3.84-4.18-7.33-9.78-10.14-15.86v-0.03c-0.06-0.12-0.11-0.24-0.17-0.37c-2.479-5.39-4.43-11.1-5.65-16.54
			c-0.01-0.021-0.01-0.05-0.02-0.07c-0.91-4.06-1.41-7.95-1.41-11.39v-19.68c4.67-0.96,10.86-4.56,15.6-9.3h0.01
			c21.51,6.1,47.72,20.74,47.72,48.9v1.3C-1357.39-645.113-1357.39-640.223-1358.17-636.193z M-1288.23-685.823l-0.01,0.271
			c0,20.42-26.29,35.7-57.41,45.68c0.26-3.52,0.25-7.16,0.25-10.85v-1.29c0-20.89-11.22-38.37-32.44-50.54
			c-6.6-3.79-13.69-6.74-20.63-8.94c0.29-1.1,0.45-2.21,0.45-3.31c0-12.71-12.43-16.38-20.62-16.38h-14.75
			c-4.09,0-9.66,1.148-14.2,3.59c-4.53,2.45-8.05,6.2-8.05,11.41c0,1.5,0.29,3.04,0.81,4.58c-7.04,2.21-14.26,5.2-20.96,9.05
			c-21.23,12.17-32.44,29.65-32.44,50.54c0,1.08-0.01,2.16-0.02,3.229c-0.02,3.062-0.03,6.15,0.11,9.19
			c-1.21-0.38-2.4-0.771-3.59-1.17c-24.5-8.25-53.69-22.72-53.69-44.79l-1.72-38.79c2,0.83,3.98,1.27,5.92,1.27
			c0.76,0,1.51-0.07,2.24-0.2c20.82-3.64,25.4-26.8,30.24-51.32c5.63-28.49,11.45-57.94,40.55-65.29
			c1.97-0.39,29.85-5.78,60.61-5.78c29.4,0,59.7,5.34,62.17,5.79c0.02,0,0.03,0.01,0.04,0.01c29.01,7.39,34.83,36.81,40.45,65.27
			c4.85,24.52,9.42,47.68,30.24,51.32c0.73,0.13,1.49,0.2,2.25,0.2c1.93,0,3.91-0.44,5.91-1.27L-1288.23-685.823z M-1262.62-783.603
			c-2.29,10.39-6.18,19.85-10.49,27.6c-4.24,7.63-8.88,13.6-12.77,17.17c-2.64,2.43-4.94,3.76-6.55,3.76
			c-0.09,0-0.15-0.01-0.18-0.02c-11.86-2.07-15.67-17.18-20.54-41.83c-3.78-19.14-8.16-41.35-21.08-56.95
			c-1.13-1.37-2.33-2.69-3.6-3.95c8.45,0.75,17.59,1.69,26.26,2.8c14.78,1.91,28.2,4.36,34.58,7.3
			C-1257.98-818.943-1259.83-796.313-1262.62-783.603z"/>
		<path fill="#FFFFFF" d="M-1286.52-724.343l-1.71,38.52l-0.01,0.271c0,20.42-26.29,35.7-57.41,45.68
			c0.26-3.52,0.25-7.16,0.25-10.85v-1.29c0-20.89-11.22-38.37-32.44-50.54c-6.6-3.79-13.69-6.74-20.63-8.94
			c0.29-1.1,0.45-2.21,0.45-3.31c0-12.71-12.43-16.38-20.62-16.38h-14.75c-4.09,0-9.66,1.148-14.2,3.59
			c-4.53,2.45-8.05,6.2-8.05,11.41c0,1.5,0.29,3.04,0.81,4.58c-7.04,2.21-14.26,5.2-20.96,9.05
			c-21.23,12.17-32.44,29.65-32.44,50.54c0,1.08-0.01,2.16-0.02,3.229c-0.02,3.062-0.03,6.15,0.11,9.19
			c-1.21-0.38-2.4-0.771-3.59-1.17c-24.5-8.25-53.69-22.72-53.69-44.79l-1.72-38.79c2,0.83,3.98,1.27,5.92,1.27
			c0.76,0,1.51-0.07,2.24-0.2c20.82-3.64,25.4-26.8,30.24-51.32c5.63-28.49,11.45-57.94,40.55-65.29
			c1.97-0.39,29.85-5.78,60.61-5.78c29.4,0,59.7,5.34,62.17,5.79c0.02,0,0.03,0.01,0.04,0.01c29.01,7.39,34.83,36.81,40.45,65.27
			c4.85,24.52,9.42,47.68,30.24,51.32c0.73,0.13,1.49,0.2,2.25,0.2C-1290.5-723.073-1288.52-723.513-1286.52-724.343z"/>
		<path fill="#FFFFFF" d="M-1432.9-691.613v19.68c0,3.44-0.5,7.3-1.44,11.33c-0.01,0.06-0.03,0.13-0.04,0.19
			c-1.23,5.24-3.17,10.75-5.64,15.96c-0.03,0.07-0.06,0.13-0.1,0.2c-2.87,6.04-6.44,11.65-10.43,15.91
			c-0.03,0.03-0.062,0.07-0.1,0.1c-0.21,0.25-0.44,0.48-0.67,0.71c-4.2,4.26-8.81,7-13.5,7.19c-1.58,0.07-3.11,0.1-4.57,0.1
			c-11.06,0-18.58-1.92-22.36-5.72c-2.41-2.43-3.54-5.9-4.07-10.05c-0.48-3.76-0.45-8.08-0.43-12.7c0.01-1.09,0.02-2.19,0.02-3.3
			c0-28.4,26.67-43.062,48.28-49.05h0.01C-1443.28-696.253-1437.39-692.533-1432.9-691.613z"/>
		<path fill="#FFFFFF" d="M-1358.17-636.193c-0.5,2.63-1.34,4.9-2.73,6.75c-3.88,5.2-13.22,8.18-28.53,9.11
			c-0.21,0.01-0.43,0.02-0.64,0.02c-4.54,0-9.04-2.8-13.15-7.23c-0.04-0.04-0.08-0.09-0.12-0.13c-3.84-4.18-7.33-9.78-10.14-15.86
			v-0.03c-0.06-0.12-0.11-0.24-0.17-0.37c-2.479-5.39-4.43-11.1-5.65-16.54c-0.01-0.021-0.01-0.05-0.02-0.07
			c-0.91-4.06-1.41-7.95-1.41-11.39v-19.68c4.67-0.96,10.86-4.56,15.6-9.3h0.01c21.51,6.1,47.72,20.74,47.72,48.9v1.3
			C-1357.39-645.113-1357.39-640.223-1358.17-636.193z"/>
		<path fill="#FFFFFF" d="M-1417.78-626.903c-0.97,0.91-2.11,1.69-3.438,2.36c-1.7,0.85-3.66,1.3-5.68,1.3
			c-3.05,0-5.96-1.02-8.18-2.87c-0.41-0.35-0.8-0.7-1.16-1.06c0.02-0.021,0.03-0.05,0.05-0.07c1.17-1.69,2.32-3.49,3.43-5.4
			c2.229-3.82,4.2-7.86,5.86-11.98C-1424.51-638.423-1421.43-632.293-1417.78-626.903z"/>
		<path fill="#FFFFFF" d="M-1262.62-783.603c-2.29,10.39-6.18,19.85-10.49,27.6c-4.24,7.63-8.88,13.6-12.77,17.17
			c-2.64,2.43-4.94,3.76-6.55,3.76c-0.09,0-0.15-0.01-0.18-0.02c-11.86-2.07-15.67-17.18-20.54-41.83
			c-3.78-19.14-8.16-41.35-21.08-56.95c-1.13-1.37-2.33-2.69-3.6-3.95c8.45,0.75,17.59,1.69,26.26,2.8
			c14.78,1.91,28.2,4.36,34.58,7.3C-1257.98-818.943-1259.83-796.313-1262.62-783.603z"/>
		<path fill="#FFFFFF" d="M-1515.83-837.823c-1.27,1.26-2.47,2.58-3.6,3.95c-12.91,15.6-17.3,37.81-21.08,56.95
			c-4.87,24.65-8.68,39.76-20.54,41.83c-0.03,0.01-0.09,0.02-0.17,0.02c-1.61,0-3.91-1.33-6.562-3.76
			c-3.89-3.58-8.53-9.55-12.77-17.17c-4.32-7.75-8.21-17.21-10.49-27.61c-2.79-12.71-4.63-35.33,14.37-44.11
			c6.39-2.94,19.81-5.39,34.58-7.3C-1533.42-836.133-1524.28-837.073-1515.83-837.823z"/>
		<path fill="#161616" d="M-1366.144-745.935c1.277-6.479,7.548-11.651,14.115-12.728c7.445-1.22,14.985,2.688,18.415,9.158
			c1.447,2.729,1.986,5.709,2.067,8.75c0.103,3.766,0.11,7.542,0.008,11.31c-0.199,7.36-3.308,13.134-9.983,16.479
			c-5.863,2.936-13.511,2.269-18.804-2.135c-4.524-3.766-6.541-8.547-6.546-14.314c0-1.883,0-3.77,0-5.655
			C-1366.971-735.079-1366.842-742.391-1366.144-745.935z"/>
		<path fill="#161616" d="M-1521.161-745.934c1.278-6.479,7.548-11.65,14.115-12.729c7.446-1.22,14.986,2.688,18.415,9.159
			c1.449,2.729,1.988,5.709,2.069,8.75c0.102,3.766,0.108,7.542,0.008,11.309c-0.2,7.361-3.309,13.135-9.984,16.479
			c-5.862,2.936-13.511,2.268-18.804-2.137c-4.524-3.766-6.541-8.545-6.547-14.313c0-1.883,0-3.77,0-5.655
			C-1521.986-735.079-1521.858-742.391-1521.161-745.934z"/>
		<path fill="#161616" d="M-1454.08-804.873c6.767,0.179,12.393,2.411,17.308,6.083c1.494,1.115,2.982,2.259,4.629,3.202
			c3.835,2.193,8.002,2.041,11.682-0.365c2.738-1.791,5.24-3.854,8.124-5.456c9.51-5.279,20.775-4.096,29.17,1.965
			c1.92,1.386,3.697,2.947,5.794,4.11c1.445,0.799,3.3,1.358,5.028,1.479c3.024,0.211,5.561,0.921,6.697,3.356
			c1.183,2.529,1.008,5.133-1.436,7.125c-2.438,1.988-5.657,2.082-8.861,1.641c-5.01-0.689-9.19-2.72-12.873-5.55
			c-1.43-1.099-2.934-2.139-4.477-3.127c-4.171-2.668-9.124-2.376-13.114,0.526c-2.656,1.933-5.372,3.875-8.354,5.429
			c-6.36,3.314-13.213,3.707-20.243,1.536c-3.715-1.147-6.834-3.076-9.715-5.302c-1.25-0.965-2.533-1.958-3.99-2.673
			c-5.232-2.565-9.163-1.482-13.036,1.581c-3.07,2.429-6.21,4.74-10.123,6.142c-3.728,1.335-7.626,2.252-11.728,1.18
			c-3.166-0.828-5.467-3.665-5.068-6.068c0.557-3.353,3.287-5.639,7.105-5.698c2.995-0.046,5.319-1.031,7.393-2.734
			c4.285-3.517,8.893-6.656,15.019-7.734C-1457.479-804.518-1455.771-804.661-1454.08-804.873z"/>
	</g>
</g>
<g id="Layer_10" display="none">
	<g display="inline">
		<path fill="#49342A" d="M4.101,272.723c-12.261-55.86,3.264-98.293,42.63-116.459c31.349-14.487,121.8-22.249,163.957-25.191
			c0,0,0.012,0.023,0.035,0c6.978-0.865,85.387-13.345,147.751-13.345c60.267,0,143.771,12.48,150.799,13.345c0,0,0,0,0.011,0
			c42.122,2.942,132.605,10.704,164.001,25.191c39.344,18.167,54.88,60.623,42.607,116.494
			c-7.531,34.291-26.022,72.077-46.908,95.238l-4.36,98.176c-0.219,59.979-71.2,97.568-146.633,119.332
			c-9.125,19.346-30.555,33.496-80.866,36.553c-0.923,0.047-1.854,0.08-2.767,0.08c-12.724,0-24.479-5.26-34.973-13.854h-0.022
			c-1.848-1.5-3.646-3.091-5.389-4.798l-0.171-0.172c-3.38,2.951-7.243,5.537-11.593,7.703c-6.805,3.394-14.51,5.191-22.352,5.191
			c-11.836,0-23.232-4.06-32.066-11.408c-0.887-0.728-1.741-1.486-2.572-2.283c-2.283,2.203-4.647,4.211-7.013,6.033
			c-10.854,8.396-22.376,13.021-34.049,13.506c-3.529,0.15-6.978,0.23-10.265,0.23c-29.897,0-49.725-5.951-62.446-18.73
			c-5.26-5.305-8.835-11.361-11.223-17.867c-6.655-1.946-13.253-4.002-19.746-6.192c-81.683-27.508-124.936-66.689-125.12-113.324
			l-4.349-98.13C30.134,344.882,11.645,307.026,4.101,272.723z"/>
		<path fill="#161616" d="M673.288,156.264c-31.397-14.487-121.882-22.249-164.003-25.191c-0.012,0-0.012,0-0.012,0
			c-7.026-0.865-90.53-13.345-150.798-13.345c-62.365,0-140.773,12.48-147.751,13.345c-0.023,0.023-0.034,0-0.034,0
			c-42.158,2.942-132.607,10.704-163.958,25.191c-39.366,18.167-54.891,60.6-42.63,116.459c7.543,34.303,26.033,72.158,46.91,95.318
			l4.348,98.13c0.185,46.635,43.437,85.815,125.122,113.324c6.493,2.19,13.091,4.246,19.747,6.192
			c2.387,6.508,5.963,12.563,11.223,17.867c12.721,12.779,32.549,18.73,62.446,18.73c3.286,0,6.736-0.08,10.265-0.23
			c11.673-0.484,23.196-5.109,34.049-13.506c2.365-1.822,4.729-3.83,7.013-6.033c0.831,0.797,1.686,1.562,2.572,2.283
			c8.836,7.35,20.231,11.408,32.066,11.408c7.842,0,15.546-1.799,22.353-5.191c4.349-2.166,8.212-4.752,11.593-7.703l0.171,0.17
			c1.742,1.709,3.541,3.3,5.387,4.8h0.023c10.496,8.594,22.249,13.854,34.973,13.854c0.911,0,1.845-0.033,2.767-0.08
			c50.313-3.057,71.742-17.207,80.866-36.553c75.432-21.764,146.413-59.354,146.633-119.332l4.36-98.176
			c20.886-23.161,39.377-60.947,46.909-95.238C728.166,216.887,712.63,174.43,673.288,156.264z M49.038,323.37
			c-8.743-15.675-16.609-34.81-21.223-55.849c-5.652-25.71-9.366-71.465,29.066-89.228c12.93-5.953,40.069-10.912,69.955-14.776
			c17.531-2.237,36.032-4.141,53.114-5.662c-2.561,2.549-4.994,5.224-7.278,7.993c-26.114,31.558-34.995,76.483-42.642,115.203
			c-9.85,49.874-17.555,80.439-41.545,84.626c-0.069,0.022-0.185,0.034-0.347,0.034c-3.264,0-7.912-2.688-13.275-7.602
			C66.997,350.867,57.608,338.791,49.038,323.37z M333.112,549.438c-5.803,12.217-13.022,23.564-21.097,32.181
			c-0.068,0.069-0.128,0.151-0.208,0.209c-0.427,0.506-0.889,0.969-1.35,1.43c-8.5,8.627-17.82,14.162-27.313,14.545
			c-3.195,0.148-6.286,0.207-9.25,0.207c-22.365,0-37.578-3.887-45.225-11.568c-4.879-4.928-7.163-11.938-8.236-20.334
			c-0.969-7.602-0.911-16.344-0.865-25.688c0.011-2.213,0.034-4.428,0.034-6.678c0-57.449,53.957-87.105,97.67-99.228h0.022
			c9.423,9.734,21.338,17.256,30.416,19.123v39.807c0,6.953-1.003,14.763-2.907,22.918c-0.022,0.125-0.068,0.263-0.08,0.394
			c-2.491,10.598-6.414,21.74-11.407,32.281C333.25,549.174,333.193,549.301,333.112,549.438z M371.348,589.313
			c-3.438,1.717-7.404,2.627-11.486,2.627c-6.175,0-12.065-2.063-16.555-5.813c-0.83-0.701-1.613-1.408-2.342-2.133
			c0.035-0.047,0.06-0.105,0.092-0.15c2.376-3.414,4.694-7.059,6.944-10.926c4.51-7.726,8.501-15.894,11.858-24.232
			c4.83,12.539,11.061,24.949,18.439,35.849C376.343,586.369,374.036,587.949,371.348,589.313z M498.892,565.736
			c-1.017,5.328-2.711,9.919-5.523,13.656c-7.847,10.519-26.748,16.553-57.718,18.433c-0.414,0.021-0.864,0.03-1.291,0.03
			c-9.182,0-18.283-5.659-26.601-14.61c-0.079-0.08-0.161-0.187-0.242-0.267c-7.772-8.453-14.831-19.778-20.52-32.088v-0.057
			c-0.114-0.242-0.217-0.484-0.334-0.752c-5.017-10.898-8.961-22.455-11.431-33.459c-0.022-0.035-0.022-0.104-0.044-0.14
			c-1.849-8.211-2.853-16.09-2.853-23.043v-39.807c9.448-1.945,21.963-9.227,31.559-18.813h0.013
			c43.519,12.332,96.54,41.951,96.54,98.918v2.63C500.472,547.697,500.472,557.594,498.892,565.736z M640.368,465.342l-0.011,0.543
			c0,41.314-53.186,72.227-116.137,92.41c0.52-7.115,0.508-14.484,0.508-21.949v-2.604c0-42.261-22.699-77.625-65.629-102.238
			c-13.345-7.67-27.694-13.635-41.731-18.084c0.588-2.229,0.911-4.478,0.911-6.703c0-25.711-25.145-33.127-41.719-33.127h-29.84
			c-8.27,0-19.538,2.317-28.719,7.256c-9.17,4.959-16.286,12.55-16.286,23.08c0,3.031,0.588,6.146,1.638,9.271
			c-14.245,4.466-28.847,10.521-42.399,18.306c-42.942,24.613-65.63,59.979-65.63,102.237c0,2.183-0.011,4.373-0.034,6.529
			c-0.046,6.193-0.058,12.445,0.22,18.594c-2.446-0.772-4.856-1.559-7.255-2.364c-49.563-16.691-108.617-45.968-108.617-90.613
			l-3.483-78.465c4.048,1.684,8.05,2.569,11.983,2.569c1.535,0,3.057-0.149,4.534-0.401c42.11-7.359,51.373-54.223,61.165-103.82
			c11.396-57.636,23.161-117.209,82.03-132.077c3.991-0.784,60.382-11.695,122.608-11.695c59.479,0,120.773,10.807,125.768,11.718
			c0.046,0,0.058,0.012,0.08,0.012c58.688,14.959,70.464,74.476,81.834,132.042c9.805,49.597,19.057,96.46,61.166,103.82
			c1.476,0.252,3.021,0.401,4.557,0.401c3.897,0,7.91-0.887,11.946-2.569L640.368,465.342z M692.179,267.544
			c-4.624,21.016-12.501,40.151-21.22,55.826c-8.569,15.444-17.959,27.52-25.827,34.741c-5.34,4.914-10,7.602-13.25,7.602
			c-0.185,0-0.302-0.012-0.371-0.034c-23.988-4.187-31.692-34.753-41.544-84.625c-7.648-38.72-16.508-83.646-42.644-115.204
			c-2.283-2.769-4.718-5.443-7.287-7.993c17.091,1.521,35.581,3.425,53.125,5.662c29.896,3.865,57.047,8.824,69.955,14.776
			C701.568,196.056,697.832,241.836,692.179,267.544z"/>
		<path fill="#E1D5C5" d="M643.834,387.422l-3.46,77.92l-0.019,0.547c0,41.31-53.184,72.221-116.137,92.406
			c0.524-7.119,0.505-14.482,0.505-21.947v-2.609c0-42.258-22.697-77.62-65.623-102.237c-13.353-7.666-27.694-13.635-41.734-18.086
			c0.587-2.226,0.91-4.47,0.91-6.695c0-25.713-25.146-33.135-41.713-33.135h-29.838c-8.272,0-19.54,2.325-28.724,7.264
			c-9.166,4.953-16.286,12.541-16.286,23.08c0,3.033,0.587,6.146,1.639,9.266c-14.242,4.47-28.846,10.517-42.4,18.306
			c-42.947,24.617-65.625,59.979-65.625,102.237c0,2.189-0.02,4.373-0.041,6.535c-0.041,6.189-0.061,12.441,0.222,18.592
			c-2.448-0.771-4.855-1.557-7.261-2.366c-49.562-16.691-108.61-45.965-108.61-90.613l-3.48-78.465
			c4.045,1.68,8.051,2.568,11.976,2.568c1.538,0,3.054-0.146,4.532-0.402c42.118-7.365,51.382-54.216,61.175-103.82
			c11.389-57.632,23.163-117.208,82.029-132.077c3.984-0.788,60.384-11.692,122.61-11.692c59.473,0,120.767,10.803,125.766,11.713
			c0.039,0,0.059,0.02,0.078,0.02c58.688,14.949,70.457,74.464,81.83,132.037c9.809,49.603,19.057,96.455,61.171,103.82
			c1.476,0.258,3.015,0.401,4.553,0.401C635.783,389.99,639.787,389.102,643.834,387.422z"/>
		<path fill="#49342A" d="M347.718,453.631v39.813c0,6.955-1.012,14.765-2.912,22.921c-0.021,0.118-0.063,0.26-0.083,0.381
			c-2.486,10.602-6.414,21.746-11.41,32.287c-0.062,0.141-0.118,0.266-0.202,0.405c-5.805,12.218-13.027,23.568-21.1,32.183
			c-0.061,0.063-0.122,0.143-0.202,0.203c-0.425,0.506-0.891,0.973-1.354,1.438c-8.497,8.617-17.823,14.162-27.31,14.543
			c-3.196,0.144-6.292,0.203-9.246,0.203c-22.373,0-37.586-3.883-45.232-11.57c-4.875-4.918-7.161-11.938-8.233-20.328
			c-0.971-7.606-0.91-16.348-0.87-25.694c0.021-2.205,0.04-4.428,0.04-6.674c0-57.449,53.952-87.107,97.667-99.226h0.021
			C326.719,444.246,338.635,451.77,347.718,453.631z"/>
		<path fill="#49342A" d="M498.892,565.74c-1.012,5.319-2.711,9.914-5.522,13.653c-7.851,10.521-26.746,16.552-57.715,18.433
			c-0.424,0.02-0.869,0.037-1.293,0.037c-9.185,0-18.288-5.662-26.604-14.621c-0.077-0.08-0.162-0.188-0.241-0.267
			c-7.768-8.453-14.825-19.783-20.514-32.084v-0.061c-0.12-0.24-0.22-0.486-0.343-0.748c-5.018-10.902-8.96-22.455-11.431-33.459
			c-0.021-0.041-0.021-0.101-0.038-0.144c-1.843-8.211-2.854-16.082-2.854-23.039v-39.813c9.448-1.939,21.969-9.225,31.558-18.813
			h0.02c43.516,12.341,96.536,41.957,96.536,98.921v2.631C500.468,547.697,500.468,557.588,498.892,565.74z"/>
		<path fill="#E598C9" d="M378.305,584.533c-1.96,1.842-4.268,3.418-6.959,4.774c-3.437,1.72-7.404,2.631-11.488,2.631
			c-6.174,0-12.058-2.063-16.548-5.807c-0.829-0.707-1.62-1.416-2.348-2.143c0.041-0.041,0.06-0.104,0.101-0.144
			c2.369-3.418,4.692-7.061,6.942-10.924c4.51-7.729,8.495-15.9,11.854-24.236C364.691,561.23,370.921,573.633,378.305,584.533z"/>
		<path fill="#49342A" d="M692.179,267.542c-4.628,21.018-12.498,40.154-21.217,55.832c-8.578,15.436-17.963,27.512-25.833,34.735
			c-5.34,4.915-9.993,7.605-13.248,7.605c-0.182,0-0.305-0.02-0.363-0.041c-23.993-4.187-31.699-34.754-41.551-84.619
			c-7.647-38.718-16.509-83.647-42.645-115.205c-2.285-2.772-4.713-5.442-7.281-7.992c17.091,1.517,35.583,3.418,53.122,5.666
			c29.896,3.861,57.044,8.819,69.953,14.765C701.567,196.051,697.826,241.83,692.179,267.542z"/>
		<path fill="#49342A" d="M179.956,157.86c-2.568,2.549-4.997,5.219-7.282,7.992c-26.116,31.557-34.996,76.486-42.643,115.205
			c-9.852,49.865-17.56,80.433-41.551,84.619c-0.061,0.022-0.183,0.041-0.344,0.041c-3.257,0-7.909-2.69-13.269-7.605
			c-7.87-7.242-17.256-19.319-25.833-34.735c-8.739-15.678-16.608-34.814-21.221-55.853c-5.645-25.712-9.365-71.47,29.071-89.231
			c12.927-5.946,40.074-10.904,69.954-14.765C144.373,161.277,162.862,159.376,179.956,157.86z"/>
		<path fill="#161616" d="M482.76,343.744c2.584-13.109,15.271-23.568,28.555-25.75c15.062-2.467,30.315,5.437,37.255,18.526
			c2.928,5.521,4.018,11.549,4.181,17.701c0.209,7.616,0.221,15.255,0.018,22.88c-0.405,14.887-6.691,26.564-20.195,33.33
			c-11.86,5.939-27.333,4.59-38.039-4.317c-9.151-7.615-13.233-17.29-13.244-28.956c0-3.811,0-7.625,0-11.439
			C481.09,365.704,481.349,350.911,482.76,343.744z"/>
		<path fill="#161616" d="M169.173,343.744c2.586-13.107,15.27-23.568,28.554-25.751c15.062-2.467,30.314,5.438,37.251,18.528
			c2.931,5.522,4.021,11.55,4.186,17.702c0.206,7.617,0.218,15.254,0.017,22.876c-0.404,14.892-6.693,26.57-20.198,33.336
			c-11.857,5.938-27.332,4.59-38.038-4.324c-9.152-7.616-13.233-17.284-13.245-28.952c0-3.812,0-7.625,0-11.439
			C167.502,365.705,167.761,350.911,169.173,343.744z"/>
		<path fill="#161616" d="M304.871,224.516c13.688,0.361,25.071,4.877,35.014,12.306c3.021,2.255,6.03,4.57,9.363,6.477
			c7.759,4.437,16.189,4.128,23.631-0.739c5.538-3.621,10.601-7.798,16.436-11.035c19.237-10.678,42.027-8.285,59.007,3.975
			c3.885,2.804,7.48,5.96,11.722,8.314c2.923,1.617,6.675,2.749,10.173,2.992c6.115,0.427,11.247,1.863,13.546,6.788
			c2.392,5.116,2.042,10.384-2.905,14.416c-4.932,4.022-11.443,4.211-17.925,3.319c-10.137-1.395-18.593-5.502-26.041-11.228
			c-2.895-2.222-5.935-4.325-9.056-6.326c-8.438-5.398-18.46-4.806-26.53,1.065c-5.374,3.91-10.865,7.837-16.897,10.982
			c-12.865,6.705-26.732,7.498-40.952,3.106c-7.516-2.32-13.825-6.223-19.652-10.727c-2.524-1.952-5.122-3.96-8.07-5.407
			c-10.585-5.189-18.537-2.997-26.372,3.199c-6.21,4.913-12.563,9.59-20.477,12.424c-7.542,2.702-15.427,4.556-23.724,2.386
			c-6.405-1.674-11.06-7.413-10.253-12.275c1.126-6.778,6.65-11.405,14.373-11.526c6.058-0.093,10.76-2.085,14.957-5.53
			c8.667-7.114,17.989-13.463,30.383-15.646C297.995,225.234,301.451,224.946,304.871,224.516z"/>
	</g>
</g>
<path display="none" fill="#F8F5E2" d="M-524.749-215.092c0,31.811-25.788,57.6-57.6,57.6h-309.279
	c-31.812,0-57.601-25.789-57.601-57.6v-309.279c0-31.812,25.789-57.6,57.601-57.6h309.279c31.812,0,57.6,25.788,57.6,57.6V-215.092z
	"/>
<rect x="-922.178" y="-561.179" display="none" fill="none" width="237.024" height="90.009"/>
<g display="none">
	<path display="inline" fill="#00A86B" d="M-582.12-475.392c-15.52-7.159-60.25-11-81.07-12.449c-0.01,0-0.01,0-0.01,0
		c-3.47-0.431-44.75-6.601-74.54-6.601c-30.83,0-69.59,6.17-73.04,6.601c-0.01,0.01-0.02,0-0.02,0
		c-20.84,1.449-65.55,5.29-81.05,12.449c-19.46,8.98-27.13,29.96-21.07,57.57c3.73,16.96,12.87,35.67,23.19,47.12l2.15,48.51
		c0.09,23.05,21.47,42.42,61.85,56.021c3.21,1.08,6.47,2.1,9.76,3.06c1.18,3.22,2.95,6.21,5.55,8.83
		c6.29,6.32,16.09,9.26,30.87,9.26c1.62,0,3.33-0.04,5.07-0.109c5.77-0.24,11.47-2.53,16.83-6.681c1.17-0.899,2.34-1.89,3.47-2.979
		c0.41,0.39,0.83,0.77,1.27,1.13c4.37,3.63,10,5.64,15.85,5.64c3.88,0,7.69-0.89,11.05-2.569c2.15-1.07,4.06-2.351,5.729-3.811
		c0.03,0.03,0.06,0.061,0.09,0.09c0.86,0.84,1.75,1.63,2.66,2.37h0.01c5.19,4.25,11,6.851,17.29,6.851c0.45,0,0.91-0.021,1.37-0.04
		c24.87-1.511,35.46-8.511,39.97-18.07c37.29-10.76,72.38-29.34,72.49-58.99l2.15-48.53c10.33-11.449,19.47-30.13,23.19-47.079
		C-554.99-445.421-562.67-466.411-582.12-475.392z M-890.71-392.781c-4.32-7.75-8.21-17.21-10.49-27.61
		c-2.79-12.71-4.63-35.33,14.37-44.109c6.39-2.94,19.81-5.391,34.58-7.3c8.67-1.11,17.81-2.051,26.26-2.801
		c-1.27,1.261-2.47,2.58-3.6,3.95c-12.91,15.601-17.3,37.811-21.08,56.95c-4.87,24.65-8.68,39.76-20.54,41.83
		c-0.03,0.01-0.09,0.02-0.17,0.02c-1.61,0-3.91-1.33-6.56-3.76C-881.83-379.191-886.47-385.161-890.71-392.781z M-750.28-281.031
		c-2.87,6.04-6.44,11.65-10.43,15.91c-0.03,0.03-0.06,0.07-0.1,0.1c-0.21,0.25-0.44,0.48-0.67,0.71c-4.2,4.261-8.81,7-13.5,7.19
		c-1.58,0.07-3.11,0.1-4.57,0.1c-11.06,0-18.58-1.92-22.36-5.72c-2.41-2.43-3.54-5.9-4.07-10.05c-0.48-3.76-0.45-8.08-0.43-12.7
		c0.01-1.09,0.02-2.19,0.02-3.3c0-28.4,26.67-43.061,48.28-49.05h0.01c4.66,4.81,10.55,8.529,15.04,9.449v19.681
		c0,3.439-0.5,7.3-1.44,11.33c-0.01,0.06-0.03,0.13-0.04,0.189c-1.23,5.24-3.17,10.75-5.64,15.96
		C-750.21-281.161-750.24-281.102-750.28-281.031z M-731.38-261.321c-1.7,0.85-3.66,1.3-5.68,1.3c-3.05,0-5.96-1.02-8.18-2.87
		c-0.41-0.35-0.8-0.699-1.16-1.06c0.02-0.021,0.03-0.05,0.05-0.07c1.17-1.689,2.32-3.49,3.43-5.399c2.23-3.82,4.2-7.86,5.86-11.98
		c2.39,6.2,5.47,12.33,9.12,17.72C-728.91-262.771-730.05-261.991-731.38-261.321z M-668.33-272.972
		c-0.5,2.631-1.34,4.898-2.73,6.75c-3.88,5.2-13.22,8.181-28.53,9.11c-0.21,0.01-0.43,0.021-0.64,0.021
		c-4.54,0-9.04-2.801-13.15-7.23c-0.04-0.04-0.08-0.09-0.12-0.13c-3.84-4.18-7.33-9.78-10.14-15.86v-0.029
		c-0.06-0.12-0.11-0.24-0.17-0.37c-2.48-5.391-4.43-11.101-5.65-16.54c-0.01-0.021-0.01-0.05-0.02-0.07
		c-0.91-4.06-1.41-7.95-1.41-11.39v-19.681c4.67-0.96,10.86-4.56,15.6-9.3h0.01c21.51,6.101,47.72,20.74,47.72,48.9v1.3
		C-667.55-281.892-667.55-277.001-668.33-272.972z M-598.39-322.602l-0.01,0.271c0,20.42-26.29,35.7-57.41,45.68
		c0.26-3.52,0.25-7.16,0.25-10.85v-1.29c0-20.891-11.22-38.37-32.44-50.54c-6.6-3.79-13.69-6.74-20.63-8.94
		c0.29-1.1,0.45-2.21,0.45-3.31c0-12.71-12.43-16.38-20.62-16.38h-14.75c-4.09,0-9.66,1.149-14.2,3.59
		c-4.53,2.45-8.05,6.2-8.05,11.41c0,1.5,0.29,3.04,0.81,4.58c-7.04,2.21-14.26,5.199-20.96,9.05
		c-21.23,12.17-32.44,29.649-32.44,50.54c0,1.08-0.01,2.16-0.02,3.229c-0.02,3.061-0.03,6.15,0.11,9.19
		c-1.21-0.38-2.4-0.771-3.59-1.17c-24.5-8.25-53.69-22.721-53.69-44.79l-1.72-38.79c2,0.83,3.979,1.27,5.92,1.27
		c0.76,0,1.51-0.069,2.24-0.199c20.82-3.643,25.4-26.801,30.24-51.32c5.63-28.49,11.45-57.94,40.55-65.29
		c1.97-0.39,29.85-5.78,60.61-5.78c29.4,0,59.7,5.34,62.17,5.79c0.02,0,0.03,0.01,0.04,0.01c29.01,7.391,34.83,36.811,40.45,65.271
		c4.85,24.52,9.42,47.68,30.24,51.32c0.73,0.13,1.49,0.199,2.25,0.199c1.93,0,3.91-0.439,5.91-1.27L-598.39-322.602z
		 M-572.78-420.381c-2.29,10.39-6.18,19.85-10.49,27.6c-4.24,7.63-8.88,13.6-12.77,17.17c-2.64,2.43-4.94,3.76-6.55,3.76
		c-0.09,0-0.15-0.01-0.18-0.02c-11.86-2.07-15.67-17.18-20.54-41.83c-3.78-19.14-8.16-41.35-21.08-56.95
		c-1.13-1.37-2.33-2.689-3.6-3.95c8.45,0.75,17.59,1.69,26.26,2.801c14.78,1.909,28.2,4.359,34.58,7.3
		C-568.14-455.722-569.99-433.091-572.78-420.381z"/>
	<path display="inline" fill="#00A86B" d="M-676.304-382.713c1.277-6.479,7.548-11.65,14.115-12.728
		c7.445-1.22,14.985,2.688,18.415,9.158c1.447,2.729,1.986,5.709,2.067,8.749c0.103,3.766,0.11,7.542,0.008,11.311
		c-0.199,7.359-3.308,13.134-9.983,16.477c-5.863,2.937-13.511,2.269-18.804-2.135c-4.524-3.766-6.541-8.547-6.546-14.314
		c0-1.883,0-3.77,0-5.654C-677.131-371.857-677.002-379.169-676.304-382.713z"/>
	<path display="inline" fill="#00A86B" d="M-831.321-382.712c1.278-6.479,7.548-11.65,14.115-12.729
		c7.446-1.22,14.986,2.688,18.415,9.159c1.449,2.729,1.988,5.709,2.069,8.75c0.102,3.766,0.108,7.541,0.008,11.309
		c-0.2,7.361-3.309,13.135-9.984,16.479c-5.862,2.936-13.511,2.269-18.804-2.137c-4.524-3.766-6.541-8.546-6.547-14.313
		c0-1.883,0-3.77,0-5.655C-832.146-371.856-832.019-379.169-831.321-382.712z"/>
	<path display="inline" fill="#00A86B" d="M-764.24-441.65c6.767,0.179,12.393,2.41,17.308,6.083
		c1.494,1.114,2.982,2.259,4.629,3.201c3.835,2.193,8.002,2.041,11.682-0.364c2.738-1.791,5.24-3.855,8.124-5.456
		c9.51-5.278,20.775-4.096,29.17,1.965c1.92,1.387,3.697,2.947,5.794,4.108c1.445,0.799,3.3,1.358,5.028,1.479
		c3.024,0.211,5.561,0.921,6.697,3.355c1.183,2.529,1.008,5.134-1.436,7.126c-2.438,1.987-5.657,2.082-8.861,1.641
		c-5.01-0.689-9.19-2.72-12.873-5.55c-1.43-1.099-2.934-2.139-4.477-3.127c-4.171-2.668-9.124-2.376-13.114,0.526
		c-2.656,1.933-5.372,3.875-8.354,5.429c-6.36,3.314-13.213,3.707-20.243,1.536c-3.715-1.146-6.834-3.076-9.715-5.302
		c-1.25-0.966-2.533-1.958-3.99-2.674c-5.232-2.565-9.163-1.481-13.036,1.581c-3.07,2.429-6.21,4.74-10.123,6.143
		c-3.728,1.335-7.626,2.252-11.728,1.18c-3.166-0.828-5.467-3.665-5.068-6.068c0.557-3.351,3.287-5.639,7.105-5.698
		c2.995-0.046,5.319-1.03,7.393-2.733c4.285-3.518,8.893-6.656,15.019-7.734C-767.64-441.296-765.932-441.438-764.24-441.65z"/>
</g>
<g>
	<rect display="none" fill="#F8F5E2" width="720" height="720"/>
	<g>
		<path fill="#00A86B" d="M636.568,171.309c-27.718-12.784-107.597-19.644-144.776-22.231c-0.02,0-0.02,0-0.02,0
			c-6.196-0.77-79.915-11.789-133.114-11.789c-55.057,0-124.276,11.019-130.437,11.789c-0.019,0.017-0.036,0-0.036,0
			c-37.217,2.587-117.061,9.447-144.741,22.231c-34.752,16.037-48.449,53.503-37.627,102.809
			c6.661,30.288,22.983,63.701,41.413,84.148l3.839,86.632c0.161,41.162,38.342,75.754,110.453,100.043
			c5.732,1.928,11.555,3.75,17.43,5.463c2.107,5.752,5.268,11.092,9.911,15.77c11.233,11.287,28.733,16.537,55.128,16.537
			c2.893,0,5.947-0.07,9.054-0.195c10.304-0.428,20.484-4.518,30.056-11.93c2.089-1.605,4.179-3.377,6.196-5.32
			c0.732,0.695,1.482,1.375,2.268,2.018c7.804,6.484,17.858,10.072,28.306,10.072c6.929,0,13.733-1.59,19.734-4.588
			c3.839-1.912,7.249-4.197,10.229-6.807c0.055,0.055,0.107,0.109,0.162,0.16c1.535,1.502,3.125,2.912,4.749,4.234h0.019
			c9.269,7.59,19.644,12.234,30.877,12.234c0.803,0,1.624-0.037,2.446-0.072c44.413-2.699,63.326-15.199,71.38-32.27
			c66.592-19.215,129.259-52.396,129.454-105.346l3.84-86.666c18.447-20.446,34.768-53.807,41.412-84.075
			C685.016,224.832,671.301,187.348,636.568,171.309z M85.481,318.837c-7.715-13.84-14.662-30.733-18.734-49.306
			c-4.982-22.698-8.268-63.092,25.663-78.771c11.412-5.25,35.377-9.627,61.753-13.036c15.483-1.983,31.806-3.663,46.896-5.002
			c-2.267,2.252-4.411,4.607-6.428,7.054c-23.055,27.861-30.896,67.524-37.646,101.702c-8.697,44.021-15.501,71.004-36.681,74.701
			c-0.054,0.019-0.161,0.036-0.303,0.036c-2.875,0-6.983-2.375-11.715-6.714C101.338,343.107,93.053,332.445,85.481,318.837z
			 M336.263,518.402c-5.125,10.787-11.5,20.807-18.625,28.414c-0.054,0.053-0.107,0.125-0.179,0.178
			c-0.375,0.445-0.786,0.857-1.196,1.27c-7.501,7.609-15.733,12.5-24.108,12.838c-2.822,0.127-5.554,0.178-8.161,0.178
			c-19.751,0-33.181-3.428-39.932-10.213c-4.303-4.34-6.322-10.535-7.268-17.947c-0.857-6.715-0.804-14.43-0.769-22.682
			c0.019-1.945,0.036-3.91,0.036-5.893c0-50.717,47.629-76.898,86.22-87.594h0.018c8.322,8.59,18.841,15.23,26.858,16.873v35.148
			c0,6.143-0.893,13.035-2.571,20.232c-0.018,0.107-0.054,0.232-0.071,0.34c-2.197,9.355-5.661,19.197-10.072,28.498
			C336.389,518.172,336.334,518.277,336.263,518.402z M370.016,553.602c-3.035,1.52-6.536,2.32-10.144,2.32
			c-5.447,0-10.644-1.82-14.608-5.123c-0.732-0.625-1.428-1.248-2.071-1.895c0.036-0.037,0.053-0.088,0.089-0.125
			c2.089-3.016,4.144-6.23,6.125-9.641c3.983-6.822,7.501-14.037,10.465-21.395c4.269,11.072,9.77,22.02,16.287,31.646
			C374.427,551.012,372.392,552.404,370.016,553.602z M482.611,532.797c-0.893,4.697-2.393,8.746-4.876,12.051
			c-6.927,9.289-23.607,14.611-50.948,16.271c-0.375,0.018-0.768,0.037-1.143,0.037c-8.108,0-16.145-5.004-23.483-12.912
			c-0.071-0.072-0.144-0.16-0.215-0.232c-6.857-7.463-13.09-17.463-18.108-28.322v-0.051c-0.107-0.215-0.196-0.43-0.304-0.662
			c-4.429-9.629-7.911-19.824-10.09-29.537c-0.018-0.039-0.018-0.09-0.035-0.125c-1.626-7.25-2.519-14.197-2.519-20.34v-35.146
			c8.34-1.717,19.394-8.145,27.859-16.609h0.018c38.413,10.896,85.219,37.037,85.219,87.326v2.322
			C484.005,516.865,484.005,525.6,482.611,532.797z M607.511,444.166l-0.018,0.482c0,36.467-46.947,63.754-102.523,81.578
			c0.465-6.287,0.446-12.787,0.446-19.377v-2.305c0-37.307-20.035-68.521-57.932-90.254c-11.786-6.77-24.447-12.037-36.841-15.965
			c0.518-1.965,0.803-3.947,0.803-5.912c0-22.697-22.197-29.252-36.822-29.252h-26.342c-7.305,0-17.251,2.051-25.359,6.41
			c-8.09,4.377-14.375,11.074-14.375,20.377c0,2.68,0.518,5.43,1.446,8.18c-12.571,3.947-25.465,9.283-37.431,16.162
			c-37.913,21.732-57.932,52.947-57.932,90.254c0,1.93-0.018,3.857-0.036,5.766c-0.036,5.469-0.053,10.984,0.197,16.412
			c-2.162-0.678-4.287-1.375-6.412-2.088c-43.752-14.734-95.88-40.576-95.88-79.986l-3.071-69.273
			c3.572,1.482,7.105,2.268,10.572,2.268c1.356,0,2.696-0.121,4-0.354c37.181-6.506,45.36-47.863,54.004-91.65
			c10.054-50.878,20.447-103.47,72.415-116.596c3.519-0.697,53.307-10.323,108.239-10.323c52.503,0,106.613,9.537,111.023,10.34
			c0.035,0,0.055,0.019,0.072,0.019c51.808,13.199,62.2,65.738,72.236,116.562c8.66,43.789,16.822,85.148,54.004,91.65
			c1.303,0.23,2.661,0.354,4.018,0.354c3.446,0,6.983-0.783,10.555-2.268L607.511,444.166z M653.247,269.549
			c-4.091,18.554-11.035,35.448-18.733,49.288c-7.572,13.627-15.858,24.288-22.805,30.664c-4.714,4.339-8.823,6.714-11.697,6.714
			c-0.16,0-0.269-0.018-0.32-0.036c-21.181-3.696-27.984-30.68-36.683-74.701c-6.749-34.18-14.571-73.843-37.646-101.702
			c-2.016-2.447-4.161-4.802-6.429-7.054c15.091,1.339,31.413,3.018,46.896,5.002c26.396,3.409,50.362,7.784,61.753,13.036
			C661.531,206.437,658.229,246.852,653.247,269.549z"/>
		<path fill="#00A86B" d="M468.37,336.817c2.281-11.57,13.481-20.806,25.208-22.73c13.296-2.179,26.761,4.8,32.888,16.354
			c2.582,4.875,3.545,10.195,3.689,15.625c0.186,6.726,0.195,13.468,0.015,20.2c-0.356,13.143-5.907,23.455-17.827,29.426
			c-10.471,5.244-24.13,4.051-33.582-3.813c-8.078-6.727-11.681-15.264-11.689-25.564c0-3.361,0-6.731,0-10.096
			C466.896,356.204,467.125,343.146,468.37,336.817z"/>
		<path fill="#00A86B" d="M191.539,336.819c2.282-11.57,13.479-20.806,25.207-22.732c13.298-2.179,26.763,4.8,32.886,16.356
			c2.588,4.874,3.55,10.195,3.695,15.626c0.182,6.726,0.192,13.467,0.015,20.196c-0.357,13.145-5.909,23.457-17.83,29.43
			c-10.468,5.242-24.128,4.051-33.58-3.816c-8.079-6.727-11.681-15.262-11.692-25.562c0-3.363,0-6.732,0-10.099
			C190.065,356.206,190.292,343.146,191.539,336.819z"/>
		<path fill="#00A86B" d="M311.333,231.566c12.084,0.32,22.132,4.303,30.909,10.863c2.668,1.989,5.325,4.034,8.267,5.716
			c6.849,3.917,14.291,3.645,20.862-0.649c4.891-3.199,9.358-6.884,14.508-9.744c16.984-9.425,37.102-7.315,52.093,3.51
			c3.429,2.477,6.603,5.262,10.347,7.337c2.581,1.427,5.894,2.426,8.979,2.642c5.401,0.376,9.932,1.645,11.959,5.991
			c2.113,4.516,1.801,9.168-2.564,12.726c-4.353,3.548-10.102,3.718-15.823,2.931c-8.946-1.231-16.412-4.857-22.989-9.912
			c-2.553-1.963-5.239-3.82-7.995-5.584c-7.448-4.765-16.294-4.243-23.419,0.939c-4.743,3.452-9.594,6.92-14.919,9.696
			c-11.357,5.918-23.596,6.62-36.151,2.742c-6.634-2.045-12.204-5.493-17.349-9.468c-2.232-1.725-4.523-3.497-7.125-4.775
			c-9.343-4.581-16.364-2.646-23.279,2.824c-5.483,4.337-11.091,8.464-18.078,10.97c-6.658,2.384-13.619,4.021-20.944,2.107
			c-5.654-1.479-9.763-6.545-9.051-10.836c0.995-5.985,5.87-10.071,12.689-10.176c5.348-0.082,9.499-1.839,13.202-4.88
			c7.653-6.283,15.881-11.886,26.821-13.812C305.261,232.199,308.312,231.945,311.333,231.566z"/>
	</g>
</g>
<g id="Layer_8_copy" display="none">
	<g display="inline">
		<g>
			<path fill="#F2F2F2" d="M-524.749-653.335c0,31.811-25.788,57.6-57.6,57.6h-309.279c-31.812,0-57.601-25.789-57.601-57.6
				v-309.279c0-31.812,25.789-57.6,57.601-57.6h309.279c31.812,0,57.6,25.788,57.6,57.6V-653.335z"/>
			<rect x="-922.178" y="-1004.377" fill="none" width="237.024" height="90.009"/>
			<text transform="matrix(1 0 0 1 -922.1777 -969.1113)" font-family="'Helvetica'" font-size="49">NEW</text>
		</g>
		<g>
			<g>
				<path fill="#161616" d="M-582.121-913.635c-15.52-7.159-60.25-11-81.07-12.449c-0.01,0-0.01,0-0.01,0
					c-3.47-0.431-44.75-6.601-74.54-6.601c-30.83,0-69.59,6.17-73.04,6.601c-0.01,0.01-0.02,0-0.02,0
					c-20.84,1.449-65.55,5.29-81.05,12.449c-19.46,8.979-27.13,29.96-21.07,57.57c3.73,16.96,12.87,35.67,23.19,47.12l2.15,48.51
					c0.09,23.05,21.47,42.42,61.85,56.021c3.21,1.08,6.47,2.1,9.76,3.06c1.18,3.22,2.95,6.21,5.55,8.83
					c6.29,6.32,16.09,9.26,30.87,9.26c1.62,0,3.33-0.04,5.07-0.109c5.77-0.24,11.47-2.53,16.83-6.681
					c1.17-0.899,2.34-1.892,3.47-2.979c0.41,0.39,0.83,0.771,1.27,1.13c4.37,3.63,10,5.642,15.85,5.642
					c3.88,0,7.69-0.892,11.05-2.569c2.15-1.07,4.06-2.351,5.729-3.811c0.03,0.03,0.06,0.061,0.09,0.09
					c0.86,0.84,1.75,1.63,2.66,2.37h0.01c5.19,4.25,11,6.851,17.29,6.851c0.45,0,0.91-0.021,1.37-0.04
					c24.87-1.511,35.46-8.511,39.97-18.07c37.29-10.76,72.38-29.34,72.49-58.99l2.15-48.53c10.33-11.449,19.47-30.13,23.19-47.079
					C-554.991-883.664-562.67-904.654-582.121-913.635z M-890.71-831.024c-4.32-7.75-8.21-17.21-10.49-27.61
					c-2.79-12.71-4.63-35.33,14.37-44.109c6.39-2.94,19.81-5.391,34.58-7.3c8.67-1.11,17.81-2.051,26.26-2.801
					c-1.27,1.261-2.47,2.58-3.6,3.95c-12.91,15.601-17.3,37.811-21.08,56.95c-4.87,24.65-8.68,39.76-20.54,41.83
					c-0.03,0.01-0.09,0.021-0.17,0.021c-1.61,0-3.91-1.33-6.56-3.76C-881.831-817.435-886.471-823.404-890.71-831.024z
					 M-750.281-719.274c-2.87,6.04-6.44,11.65-10.43,15.91c-0.03,0.03-0.06,0.07-0.1,0.1c-0.21,0.25-0.44,0.48-0.67,0.71
					c-4.2,4.261-8.81,7-13.5,7.188c-1.58,0.07-3.11,0.1-4.57,0.1c-11.06,0-18.58-1.92-22.36-5.72c-2.41-2.43-3.54-5.9-4.07-10.05
					c-0.48-3.76-0.45-8.08-0.43-12.7c0.01-1.09,0.02-2.19,0.02-3.3c0-28.4,26.67-43.061,48.28-49.05h0.01
					c4.66,4.81,10.55,8.529,15.04,9.449v19.681c0,3.439-0.5,7.3-1.44,11.33c-0.01,0.06-0.03,0.13-0.04,0.189
					c-1.23,5.24-3.17,10.75-5.64,15.96C-750.21-719.404-750.241-719.345-750.281-719.274z M-731.381-699.564
					c-1.7,0.85-3.66,1.3-5.68,1.3c-3.05,0-5.96-1.02-8.18-2.87c-0.41-0.35-0.8-0.699-1.16-1.062c0.02-0.021,0.03-0.05,0.05-0.07
					c1.17-1.689,2.32-3.49,3.43-5.399c2.23-3.82,4.2-7.86,5.86-11.98c2.39,6.2,5.47,12.33,9.12,17.72
					C-728.911-701.015-730.051-700.234-731.381-699.564z M-668.331-711.215c-0.5,2.631-1.34,4.9-2.73,6.75
					c-3.88,5.2-13.22,8.181-28.53,9.11c-0.21,0.01-0.43,0.021-0.64,0.021c-4.54,0-9.04-2.801-13.15-7.23
					c-0.04-0.04-0.08-0.09-0.12-0.13c-3.84-4.18-7.33-9.78-10.14-15.858v-0.029c-0.06-0.12-0.11-0.24-0.17-0.37
					c-2.48-5.391-4.43-11.101-5.65-16.54c-0.01-0.021-0.01-0.05-0.02-0.07c-0.91-4.06-1.41-7.95-1.41-11.39v-19.681
					c4.67-0.96,10.86-4.562,15.6-9.3h0.01c21.51,6.101,47.72,20.74,47.72,48.9v1.3
					C-667.551-720.135-667.551-715.244-668.331-711.215z M-598.391-760.845l-0.01,0.271c0,20.42-26.29,35.7-57.41,45.68
					c0.26-3.52,0.25-7.16,0.25-10.85v-1.29c0-20.891-11.22-38.37-32.44-50.54c-6.6-3.79-13.69-6.74-20.63-8.938
					c0.29-1.1,0.45-2.21,0.45-3.312c0-12.71-12.43-16.38-20.62-16.38h-14.75c-4.09,0-9.66,1.149-14.2,3.59
					c-4.53,2.45-8.05,6.2-8.05,11.41c0,1.5,0.29,3.04,0.81,4.58c-7.04,2.21-14.26,5.199-20.96,9.05
					c-21.23,12.17-32.44,29.649-32.44,50.54c0,1.08-0.01,2.16-0.02,3.229c-0.02,3.061-0.03,6.15,0.11,9.188
					c-1.21-0.38-2.4-0.771-3.59-1.17c-24.5-8.25-53.69-22.721-53.69-44.79l-1.72-38.79c2,0.83,3.979,1.27,5.92,1.27
					c0.76,0,1.51-0.069,2.24-0.199c20.82-3.641,25.4-26.801,30.24-51.32c5.63-28.49,11.45-57.94,40.55-65.29
					c1.97-0.39,29.85-5.78,60.61-5.78c29.4,0,59.7,5.34,62.17,5.79c0.02,0,0.03,0.01,0.04,0.01
					c29.01,7.391,34.83,36.811,40.45,65.271c4.85,24.52,9.42,47.68,30.24,51.32c0.73,0.13,1.49,0.199,2.25,0.199
					c1.93,0,3.91-0.439,5.91-1.27L-598.391-760.845z M-572.781-858.624c-2.29,10.39-6.18,19.85-10.49,27.6
					c-4.24,7.63-8.88,13.6-12.77,17.17c-2.64,2.43-4.94,3.76-6.55,3.76c-0.09,0-0.15-0.01-0.18-0.021
					c-11.86-2.07-15.67-17.18-20.54-41.83c-3.78-19.14-8.16-41.35-21.08-56.95c-1.13-1.37-2.33-2.689-3.6-3.95
					c8.45,0.75,17.59,1.69,26.26,2.801c14.78,1.909,28.2,4.359,34.58,7.3C-568.141-893.965-569.991-871.334-572.781-858.624z"/>
				<path fill="#161616" d="M-676.304-820.956c1.277-6.479,7.548-11.65,14.115-12.728c7.445-1.22,14.985,2.688,18.415,9.158
					c1.447,2.729,1.986,5.709,2.067,8.749c0.103,3.766,0.11,7.542,0.008,11.311c-0.199,7.359-3.308,13.134-9.983,16.477
					c-5.863,2.938-13.511,2.271-18.804-2.135c-4.524-3.766-6.541-8.547-6.546-14.314c0-1.883,0-3.77,0-5.654
					C-677.131-810.101-677.003-817.412-676.304-820.956z"/>
				<path fill="#161616" d="M-831.321-820.955c1.278-6.479,7.548-11.65,14.115-12.729c7.446-1.22,14.986,2.688,18.415,9.159
					c1.449,2.729,1.988,5.709,2.069,8.75c0.102,3.766,0.108,7.541,0.008,11.309c-0.2,7.361-3.309,13.135-9.984,16.479
					c-5.862,2.938-13.511,2.271-18.804-2.137c-4.524-3.766-6.541-8.546-6.547-14.313c0-1.883,0-3.77,0-5.655
					C-832.146-810.1-832.019-817.412-831.321-820.955z"/>
				<path fill="#161616" d="M-764.241-879.894c6.767,0.179,12.393,2.41,17.308,6.083c1.494,1.114,2.982,2.259,4.629,3.201
					c3.835,2.193,8.002,2.041,11.682-0.364c2.738-1.791,5.24-3.855,8.124-5.456c9.51-5.278,20.775-4.096,29.17,1.965
					c1.92,1.387,3.697,2.947,5.794,4.11c1.445,0.799,3.3,1.358,5.028,1.479c3.024,0.211,5.561,0.921,6.697,3.355
					c1.183,2.529,1.008,5.134-1.436,7.126c-2.438,1.987-5.657,2.082-8.861,1.641c-5.01-0.689-9.19-2.72-12.873-5.55
					c-1.43-1.101-2.934-2.139-4.477-3.127c-4.171-2.668-9.124-2.376-13.114,0.526c-2.656,1.933-5.372,3.875-8.354,5.429
					c-6.36,3.314-13.213,3.707-20.243,1.536c-3.715-1.146-6.834-3.076-9.715-5.302c-1.25-0.966-2.533-1.958-3.99-2.674
					c-5.232-2.565-9.163-1.481-13.036,1.581c-3.07,2.429-6.21,4.74-10.123,6.143c-3.728,1.335-7.626,2.252-11.728,1.18
					c-3.166-0.828-5.467-3.665-5.068-6.068c0.557-3.351,3.287-5.639,7.105-5.698c2.995-0.046,5.319-1.03,7.393-2.731
					c4.285-3.52,8.893-6.656,15.019-7.734C-767.64-879.539-765.932-879.682-764.241-879.894z"/>
			</g>
		</g>
	</g>
</g>
<g id="Layer_3_copy_2" display="none">
	<circle display="inline" fill="#CEB2F7" cx="-373.879" cy="533.86" r="178.888"/>
</g>
<g id="Layer_17_copy_3" display="none">
	<path display="inline" fill="#E598C9" d="M-373.076,403.24c0.164,2.764-2.669,5.182-6.329,5.4l0,0
		c-3.662,0.224-6.764-1.84-6.931-4.603l-0.29-4.827c-0.167-2.764,2.667-5.184,6.326-5.4l0,0c3.659-0.224,6.764,1.84,6.928,4.604
		L-373.076,403.24z"/>
	<g display="inline">
		<path fill="#A39482" d="M-340.214,436.572l5.512-28.702c0.08-0.417,0.177-0.831,0.291-1.224
			c2.032-7.151,9.228-11.699,16.667-10.271c3.927,0.754,7.186,3.031,9.262,6.094c1.861,2.74,2.771,6.105,2.418,9.604
			c-0.044,0.424-0.108,0.843-0.188,1.26c0,0-9.332,38.805-18.887,79.529C-333.271,527.516-345.659,468.313-340.214,436.572z"/>
		<path fill="#352218" d="M-335.735,504.475c-7.406-8.774-11.879-46.562-8.099-68.598l5.512-28.697
			c0.101-0.527,0.226-1.054,0.365-1.539c2.212-7.778,9.395-13.213,17.47-13.213c1.147,0,2.304,0.109,3.439,0.328
			c4.77,0.916,8.897,3.632,11.613,7.645c2.39,3.516,3.469,7.795,3.036,12.051c-0.053,0.529-0.133,1.053-0.269,1.745
			c-0.096,0.388-9.443,39.261-18.886,79.509c-1.552,6.617-3.856,13.381-9.182,13.387h-0.005
			C-332.012,507.09-333.914,506.636-335.735,504.475z M-330.87,407.666c-0.082,0.287-0.152,0.59-0.21,0.899l-5.5,28.631
			c-3.787,22.077,1.355,54.286,5.697,61.523c0.546-1.108,1.316-3.128,2.155-6.702c9.446-40.27,18.798-79.159,18.855-79.377
			c0.058-0.313,0.106-0.628,0.14-0.939c0.257-2.531-0.382-5.076-1.801-7.166c-1.617-2.383-4.067-3.995-6.906-4.541
			c-0.678-0.129-1.365-0.195-2.048-0.195C-325.283,399.799-329.551,403.029-330.87,407.666z"/>
	</g>
	<g display="inline">
		<path fill="#A39482" d="M-407.544,436.572l-5.512-28.702c-0.08-0.417-0.177-0.831-0.291-1.224
			c-2.032-7.151-9.228-11.699-16.667-10.271c-3.926,0.754-7.185,3.031-9.261,6.094c-1.86,2.74-2.771,6.105-2.417,9.604
			c0.043,0.424,0.107,0.843,0.188,1.26c0,0,9.333,38.805,18.886,79.529C-414.486,527.516-402.099,468.313-407.544,436.572z"/>
		<path fill="#352218" d="M-417.019,507.09h-0.005c-5.325-0.006-7.629-6.77-9.182-13.387c-9.441-40.248-18.79-79.121-18.885-79.509
			c-0.136-0.692-0.215-1.218-0.269-1.745c-0.432-4.256,0.646-8.535,3.035-12.051c2.718-4.013,6.844-6.729,11.615-7.645
			c1.134-0.219,2.292-0.329,3.438-0.329c8.076,0,15.258,5.436,17.471,13.214c0.139,0.485,0.264,1.012,0.364,1.539l5.512,28.697
			c3.78,22.036-0.693,59.821-8.099,68.598C-413.845,506.636-415.747,507.09-417.019,507.09z M-427.271,399.799
			c-0.683,0-1.37,0.066-2.047,0.195c-2.838,0.546-5.289,2.158-6.906,4.541c-1.419,2.09-2.058,4.635-1.801,7.166
			c0.033,0.313,0.082,0.627,0.141,0.939c0.057,0.218,9.408,39.107,18.854,79.377c0.839,3.574,1.609,5.594,2.156,6.702
			c4.341-7.237,9.484-39.446,5.697-61.523l-5.5-28.631c-0.059-0.312-0.128-0.612-0.21-0.899
			C-418.208,403.029-422.475,399.799-427.271,399.799z"/>
	</g>
	<path display="inline" fill="#E1D5C5" d="M-315.057,465.764c0,0,0,12.936,0,38.744c0,31.242,6.888,152.606,6.888,152.606
		c0,0.429-0.019,0.848-0.055,1.256c-0.644,7.408-6.856,13.229-14.429,13.229c-4.002,0-7.615-1.62-10.25-4.235
		c-2.341-2.347-3.87-5.477-4.183-8.978c-0.036-0.426-0.053-0.845-0.053-1.271v-29.229c-7.833,4.239-16.793,6.651-26.319,6.651
		h-21.394c-9.526,0-18.484-2.412-26.316-6.651v29.229c0,0.429-0.019,0.848-0.056,1.256c-0.644,7.408-6.855,13.229-14.433,13.229
		c-3.998,0-7.629-1.62-10.244-4.235c-2.34-2.347-3.87-5.477-4.183-8.978c-0.036-0.426-0.054-0.845-0.054-1.271
		c0,0,6.347-119.981,6.347-152.606c0-24.43,0-38.741,0-38.741c0-30.519,14.353-55.293,38.038-55.293h42.661
		C-331.589,410.474-315.057,435.243-315.057,465.764z"/>
	<path display="inline" fill="#352218" d="M-418.369,653.456c-0.344,5-3.657,8.928-7.698,8.928c-2.133,0-4.06-1.093-5.466-2.855
		c-1.25-1.578-2.061-3.693-2.23-6.06c0.344-5.001,3.657-8.928,7.696-8.928c2.132,0,4.072,1.093,5.468,2.859
		C-419.352,648.979-418.525,651.106-418.369,653.456z"/>
	<path display="inline" fill="#352218" d="M-314.932,653.456c-0.346,5-3.656,8.928-7.7,8.928c-2.131,0-4.061-1.093-5.464-2.855
		c-1.25-1.578-2.063-3.693-2.232-6.06c0.347-5.001,3.657-8.928,7.697-8.928c2.135,0,4.072,1.093,5.468,2.859
		C-315.914,648.979-315.09,651.106-314.932,653.456z"/>
	<path display="inline" fill="#352218" d="M-377.062,625.758c-2.536,0-5.175-0.579-7.847-1.746c-1.866-0.813-2.72-2.985-1.907-4.851
		c0.816-1.862,2.982-2.719,4.853-1.903c4.213,1.834,7.883,1.412,10.914-1.268c3.642-3.216,4.907-8.474,4.211-10.823
		c-0.705-2.396-2.541-4.254-5.03-5.102c-2.371-0.811-4.901-0.487-6.761,0.855c-2.556,1.851-3.103,3.324-3.024,3.902
		c0.049,0.36,0.388,0.607,0.686,0.721c0.325,0.118,0.811,0.176,1.292-0.256c1.517-1.354,3.845-1.228,5.204,0.294
		c1.355,1.521,1.222,3.85-0.297,5.208c-2.397,2.134-5.743,2.771-8.746,1.673c-2.941-1.083-5.027-3.623-5.443-6.631
		c-0.305-2.219,0.067-6.582,6.002-10.883c3.798-2.743,8.827-3.441,13.464-1.867c4.715,1.607,8.349,5.344,9.723,9.995
		c1.679,5.685-1.131,13.783-6.403,18.437C-369.354,624.331-373.079,625.758-377.062,625.758z"/>
	<g display="inline">
		<path fill="#352218" d="M-311.374,504.502v-38.729c0-33.081-18.313-58.989-41.727-58.989h-2.127
			c-0.998-2.183-2.759-3.682-5.151-4.391c-2.733-0.785-7.751-1.26-13.716-1.26c-6.173,0-11.93,0.498-14.636,1.26
			c-2.733,0.764-4.073,2.497-4.73,4.391h-2.283c-24.569,0-41.726,24.252-41.726,58.989v38.729c0,32.162-6.28,151.219-6.359,152.608
			c0,0.524,0.025,1.053,0.079,1.604c0.367,4.256,2.233,8.25,5.256,11.245c3.416,3.441,7.985,5.335,12.846,5.335
			c9.328,0,17.291-7.305,18.104-16.58c0.028-0.524,0.053-1.053,0.053-1.604v-23.387c7.147,2.943,14.871,4.493,22.649,4.493h21.389
			c7.753,0,15.477-1.55,22.624-4.493v23.387c0,0.524,0.026,1.053,0.079,1.604c0.367,4.256,2.232,8.25,5.256,11.273
			c3.44,3.413,8.014,5.307,12.849,5.307c9.325,0,17.289-7.305,18.102-16.605c0.025-0.499,0.055-1.025,0.055-1.787
			C-304.569,655.692-311.374,535.295-311.374,504.502z M-311.9,658.059c-0.472,5.515-5.199,9.853-10.745,9.853
			c-2.892,0-5.597-1.13-7.647-3.152c-1.786-1.787-2.89-4.149-3.128-6.674c-0.026-0.313-0.026-0.657-0.026-0.973v-26.959
			c1.997-1.552,5.415-4.492,8.225-8.462c1.183-1.656,0.79-3.967-0.867-5.15c-1.655-1.18-3.968-0.784-5.151,0.868
			c-2.313,3.259-5.175,5.701-6.701,6.885c-0.315,0.08-0.63,0.182-0.944,0.342c-7.516,4.074-16.003,6.229-24.568,6.229h-21.389
			c-8.094,0-16.159-1.916-23.331-5.599c-0.134-0.158-0.265-0.263-0.395-0.367c-1.052-0.762-4.705-3.521-7.517-7.488
			c-1.181-1.652-3.467-2.048-5.123-0.868c-1.683,1.186-2.05,3.494-0.868,5.15c2.392,3.362,5.228,5.992,7.227,7.676v27.745
			c0,0.313-0.029,0.631-0.055,0.948c-0.472,5.513-5.201,9.851-10.747,9.851c-2.89,0-5.597-1.103-7.647-3.152
			c-1.783-1.786-2.886-4.149-3.123-6.674c-0.028-0.313-0.028-0.657-0.028-0.762c0.054-1.21,6.331-120.478,6.331-152.819V480.41
			c3.574,4.072,7.727,7.042,9.671,7.042c0.157,0,0.498-0.053,0.657-0.104c3.074-0.974,8.276-9.801,10.588-14.373
			c2.391-4.678,5.019-10.904,3.995-13.949c-0.841-2.498-9.985-4.152-15.661-4.152c-3.495,0-6.413,0.498-8.75,1.444
			c2.603-25.251,15.817-42.147,33.871-42.147h2.048c1.365,3.628,5.964,5.1,8.119,5.782c2.548,0.813,7.069,1.313,11.774,1.313
			c4.624,0,8.671-0.473,11.087-1.313c2.498-0.867,6.78-2.364,8.121-5.782h1.495c16.921,0,30.641,17.477,33.715,41.359
			c-1.419-0.475-3.023-0.686-4.81-0.686c-8.119,0-19.867,5.047-20.209,7.909c-0.367,3.179,3.496,8.75,6.806,12.852
			c3.18,3.968,10.09,11.561,13.298,11.876h0.183c1.447,0,3.469-1.895,5.39-4.311v21.336c0,31.004,6.803,151.609,6.882,152.608
			C-311.847,657.426-311.875,657.741-311.9,658.059z"/>
	</g>
	<path display="inline" fill="#352218" d="M-373.07,434.85c-3.966,0-7.947-0.521-11.513-1.557c-1.955-0.566-3.082-2.611-2.515-4.566
		c0.57-1.958,2.61-3.086,4.568-2.514c5.23,1.514,11.568,1.689,16.96,0.465c1.991-0.458,3.961,0.791,4.414,2.775
		c0.452,1.982-0.793,3.961-2.777,4.412C-366.824,434.523-369.942,434.85-373.07,434.85z"/>
	<circle display="inline" fill="#352218" cx="-403.686" cy="443.881" r="10.711"/>
	<circle display="inline" fill="#352218" cx="-346.322" cy="443.881" r="10.713"/>
</g>
<g id="Layer_1_1_" display="none">
	
		<image display="inline" overflow="visible" enable-background="new    " width="256" height="256" xlink:href="671E34C7.png"  transform="matrix(1 0 0 1 436 0)">
	</image>
	
		<image display="inline" overflow="visible" enable-background="new    " width="256" height="256" xlink:href="671E34C5.png"  transform="matrix(1.7109 0 0 1.7109 -79.9795 147.0205)">
	</image>
	
		<image display="inline" overflow="visible" enable-background="new    " width="256" height="256" xlink:href="671E34CB.png"  transform="matrix(1 0 0 1 218.3315 0)">
	</image>
	
		<image display="inline" overflow="visible" enable-background="new    " width="256" height="256" xlink:href="671E34CD.png"  transform="matrix(1 0 0 1 464 210)">
	</image>
	
		<image display="inline" overflow="visible" enable-background="new    " width="256" height="256" xlink:href="671E34CF.png"  transform="matrix(1 0 0 1 9 6)">
	</image>
	
		<image display="inline" overflow="visible" opacity="0.8" enable-background="new    " width="731" height="691" xlink:href="671E34CD.jpeg"  transform="matrix(0.6156 0.1301 -0.1301 0.6156 -80.459 -685.3794)">
	</image>
	
		<image display="inline" overflow="visible" enable-background="new    " width="733" height="692" xlink:href="671E34CB.jpeg"  transform="matrix(0.7181 0 0 0.7191 -1280.3149 -332.6074)">
	</image>
	
		<image display="inline" overflow="visible" enable-background="new    " width="118" height="84" xlink:href="671E34C5.jpeg"  transform="matrix(1 0 0 1 -821 -105)">
	</image>
</g>
</svg>
