<svg xmlns="http://www.w3.org/2000/svg"><g fill="#00A86B"><path d="M636.568 171.309c-27.718-12.784-107.597-19.644-144.776-22.231h-.02c-6.196-.77-79.915-11.789-133.114-11.789-55.057 0-124.276 11.019-130.437 11.789-.019.017-.036 0-.036 0-37.217 2.587-117.061 9.447-144.741 22.231-34.752 16.037-48.449 53.503-37.627 102.809 6.661 30.288 22.983 63.701 41.413 84.148l3.839 86.632c.161 41.162 38.342 75.754 110.453 100.043a448.627 448.627 0 0 0 17.43 5.463c2.107 5.752 5.268 11.092 9.911 15.77 11.233 11.287 28.733 16.537 55.128 16.537 2.893 0 5.947-.07 9.054-.195 10.304-.428 20.484-4.518 30.056-11.93a73.326 73.326 0 0 0 6.196-5.32 41.115 41.115 0 0 0 2.268 2.018c7.804 6.484 17.858 10.072 28.306 10.072 6.929 0 13.733-1.59 19.734-4.588 3.839-1.912 7.249-4.197 10.229-6.807.055.055.107.109.162.16a69.736 69.736 0 0 0 4.749 4.234h.019c9.269 7.59 19.644 12.234 30.877 12.234.803 0 1.624-.037 2.446-.072 44.413-2.699 63.326-15.199 71.38-32.27 66.592-19.215 129.259-52.396 129.454-105.346l3.84-86.666c18.447-20.446 34.768-53.807 41.412-84.075 10.843-49.328-2.872-86.812-37.605-102.851zM85.481 318.837c-7.715-13.84-14.662-30.733-18.734-49.306-4.982-22.698-8.268-63.092 25.663-78.771 11.412-5.25 35.377-9.627 61.753-13.036 15.483-1.983 31.806-3.663 46.896-5.002a96.094 96.094 0 0 0-6.428 7.054c-23.055 27.861-30.896 67.524-37.646 101.702-8.697 44.021-15.501 71.004-36.681 74.701a1.02 1.02 0 0 1-.303.036c-2.875 0-6.983-2.375-11.715-6.714-6.948-6.394-15.233-17.056-22.805-30.664zm250.782 199.565c-5.125 10.787-11.5 20.807-18.625 28.414-.054.053-.107.125-.179.178-.375.445-.786.857-1.196 1.27-7.501 7.609-15.733 12.5-24.108 12.838a181.59 181.59 0 0 1-8.161.178c-19.751 0-33.181-3.428-39.932-10.213-4.303-4.34-6.322-10.535-7.268-17.947-.857-6.715-.804-14.43-.769-22.682.019-1.945.036-3.91.036-5.893 0-50.717 47.629-76.898 86.22-87.594h.018c8.322 8.59 18.841 15.23 26.858 16.873v35.148c0 6.143-.893 13.035-2.571 20.232-.018.107-.054.232-.071.34-2.197 9.355-5.661 19.197-10.072 28.498a3.1 3.1 0 0 1-.18.36zm33.753 35.2c-3.035 1.52-6.536 2.32-10.144 2.32-5.447 0-10.644-1.82-14.608-5.123a34.429 34.429 0 0 1-2.071-1.895c.036-.037.053-.088.089-.125a143.547 143.547 0 0 0 6.125-9.641 164.514 164.514 0 0 0 10.465-21.395c4.269 11.072 9.77 22.02 16.287 31.646-1.732 1.623-3.767 3.015-6.143 4.213zm112.595-20.805c-.893 4.697-2.393 8.746-4.876 12.051-6.927 9.289-23.607 14.611-50.948 16.271-.375.018-.768.037-1.143.037-8.108 0-16.145-5.004-23.483-12.912-.071-.072-.144-.16-.215-.232-6.857-7.463-13.09-17.463-18.108-28.322v-.051c-.107-.215-.196-.43-.304-.662-4.429-9.629-7.911-19.824-10.09-29.537-.018-.039-.018-.09-.035-.125-1.626-7.25-2.519-14.197-2.519-20.34v-35.146c8.34-1.717 19.394-8.145 27.859-16.609h.018c38.413 10.896 85.219 37.037 85.219 87.326v2.322c.019 9.997.019 18.732-1.375 25.929zm124.9-88.631-.018.482c0 36.467-46.947 63.754-102.523 81.578.465-6.287.446-12.787.446-19.377v-2.305c0-37.307-20.035-68.521-57.932-90.254-11.786-6.77-24.447-12.037-36.841-15.965.518-1.965.803-3.947.803-5.912 0-22.697-22.197-29.252-36.822-29.252h-26.342c-7.305 0-17.251 2.051-25.359 6.41-8.09 4.377-14.375 11.074-14.375 20.377 0 2.68.518 5.43 1.446 8.18-12.571 3.947-25.465 9.283-37.431 16.162-37.913 21.732-57.932 52.947-57.932 90.254 0 1.93-.018 3.857-.036 5.766-.036 5.469-.053 10.984.197 16.412a338.83 338.83 0 0 1-6.412-2.088c-43.752-14.734-95.88-40.576-95.88-79.986l-3.071-69.273c3.572 1.482 7.105 2.268 10.572 2.268 1.356 0 2.696-.121 4-.354 37.181-6.506 45.36-47.863 54.004-91.65 10.054-50.878 20.447-103.47 72.415-116.596 3.519-.697 53.307-10.323 108.239-10.323 52.503 0 106.613 9.537 111.023 10.34.035 0 .055.019.072.019 51.808 13.199 62.2 65.738 72.236 116.562 8.66 43.789 16.822 85.148 54.004 91.65 1.303.23 2.661.354 4.018.354 3.446 0 6.983-.783 10.555-2.268l-3.056 68.789zm45.736-174.617c-4.091 18.554-11.035 35.448-18.733 49.288-7.572 13.627-15.858 24.288-22.805 30.664-4.714 4.339-8.823 6.714-11.697 6.714-.16 0-.269-.018-.32-.036-21.181-3.696-27.984-30.68-36.683-74.701-6.749-34.18-14.571-73.843-37.646-101.702a95.661 95.661 0 0 0-6.429-7.054c15.091 1.339 31.413 3.018 46.896 5.002 26.396 3.409 50.362 7.784 61.753 13.036 33.948 15.677 30.646 56.092 25.664 78.789z"/><path d="M468.37 336.817c2.281-11.57 13.481-20.806 25.208-22.73 13.296-2.179 26.761 4.8 32.888 16.354 2.582 4.875 3.545 10.195 3.689 15.625.186 6.726.195 13.468.015 20.2-.356 13.143-5.907 23.455-17.827 29.426-10.471 5.244-24.13 4.051-33.582-3.813-8.078-6.727-11.681-15.264-11.689-25.564v-10.096c-.176-.015.053-13.073 1.298-19.402zM191.539 336.819c2.282-11.57 13.479-20.806 25.207-22.732 13.298-2.179 26.763 4.8 32.886 16.356 2.588 4.874 3.55 10.195 3.695 15.626.182 6.726.192 13.467.015 20.196-.357 13.145-5.909 23.457-17.83 29.43-10.468 5.242-24.128 4.051-33.58-3.816-8.079-6.727-11.681-15.262-11.692-25.562v-10.099c-.175-.012.052-13.072 1.299-19.399zM311.333 231.566c12.084.32 22.132 4.303 30.909 10.863 2.668 1.989 5.325 4.034 8.267 5.716 6.849 3.917 14.291 3.645 20.862-.649 4.891-3.199 9.358-6.884 14.508-9.744 16.984-9.425 37.102-7.315 52.093 3.51 3.429 2.477 6.603 5.262 10.347 7.337 2.581 1.427 5.894 2.426 8.979 2.642 5.401.376 9.932 1.645 11.959 5.991 2.113 4.516 1.801 9.168-2.564 12.726-4.353 3.548-10.102 3.718-15.823 2.931-8.946-1.231-16.412-4.857-22.989-9.912-2.553-1.963-5.239-3.82-7.995-5.584-7.448-4.765-16.294-4.243-23.419.939-4.743 3.452-9.594 6.92-14.919 9.696-11.357 5.918-23.596 6.62-36.151 2.742-6.634-2.045-12.204-5.493-17.349-9.468-2.232-1.725-4.523-3.497-7.125-4.775-9.343-4.581-16.364-2.646-23.279 2.824-5.483 4.337-11.091 8.464-18.078 10.97-6.658 2.384-13.619 4.021-20.944 2.107-5.654-1.479-9.763-6.545-9.051-10.836.995-5.985 5.87-10.071 12.689-10.176 5.348-.082 9.499-1.839 13.202-4.88 7.653-6.283 15.881-11.886 26.821-13.812 2.978-.525 6.029-.779 9.05-1.158z"/></g></svg>