<?xml version="1.0" encoding="utf-8"?>
<!DOCTYPE svg PUBLIC "-//W3C//DTD SVG 1.1//EN" "http://www.w3.org/Graphics/SVG/1.1/DTD/svg11.dtd">
<svg version="1.1" id="Layer_1" xmlns="http://www.w3.org/2000/svg" xmlns:xlink="http://www.w3.org/1999/xlink" x="0px" y="0px"
	 width="504px" height="353.196px" viewBox="0 0 504 353.196" enable-background="new 0 0 504 353.196" xml:space="preserve">
<g>
	<path fill="#00A86B" d="M471.305,26.976c-21.979-10.137-85.318-15.577-114.8-17.628c-0.016,0-0.016,0-0.016,0
		C351.576,8.737,293.121,0,250.937,0c-43.657,0-98.544,8.737-103.429,9.348c-0.015,0.014-0.028,0-0.028,0
		c-29.511,2.051-92.823,7.491-114.772,17.628C5.15,39.692-5.71,69.401,2.871,108.498c5.282,24.016,18.225,50.512,32.838,66.725
		l3.044,68.694c0.128,32.64,30.403,60.069,87.584,79.33c4.545,1.528,9.162,2.973,13.82,4.332c1.671,4.561,4.178,8.795,7.859,12.504
		c8.907,8.95,22.784,13.113,43.714,13.113c2.294,0,4.716-0.056,7.179-0.155c8.171-0.339,16.243-3.582,23.833-9.459
		c1.657-1.273,3.313-2.678,4.913-4.219c0.581,0.551,1.176,1.09,1.799,1.6c6.188,5.142,14.161,7.986,22.445,7.986
		c5.494,0,10.89-1.26,15.648-3.638c3.044-1.516,5.748-3.328,8.111-5.397c0.043,0.043,0.085,0.087,0.129,0.127
		c1.217,1.191,2.478,2.309,3.766,3.358h0.015c7.35,6.018,15.576,9.701,24.484,9.701c0.636,0,1.288-0.029,1.939-0.058
		c35.217-2.14,50.214-12.052,56.601-25.588c52.804-15.236,102.495-41.548,102.649-83.534l3.045-68.721
		c14.628-16.213,27.568-42.667,32.838-66.667C509.721,69.417,498.846,39.693,471.305,26.976z M34.321,143.958
		c-6.118-10.975-11.625-24.37-14.854-39.097c-3.951-17.998-6.556-50.029,20.349-62.461c9.049-4.163,28.053-7.634,48.968-10.337
		c12.277-1.572,25.22-2.905,37.186-3.967c-1.798,1.786-3.498,3.653-5.097,5.594c-18.282,22.092-24.499,53.543-29.851,80.645
		c-6.896,34.906-12.292,56.303-29.085,59.234c-0.043,0.015-0.127,0.029-0.241,0.029c-2.28,0-5.537-1.883-9.29-5.324
		C46.896,163.203,40.326,154.748,34.321,143.958z M233.178,302.203c-4.063,8.553-9.119,16.499-14.769,22.531
		c-0.042,0.042-0.084,0.099-0.142,0.141c-0.297,0.353-0.623,0.68-0.949,1.007c-5.948,6.034-12.476,9.912-19.116,10.18
		c-2.238,0.101-4.404,0.141-6.472,0.141c-15.661,0-26.31-2.718-31.664-8.099c-3.412-3.441-5.013-8.354-5.763-14.231
		c-0.68-5.325-0.638-11.442-0.609-17.985c0.015-1.542,0.028-3.101,0.028-4.672c0-40.216,37.767-60.977,68.368-69.458h0.014
		c6.599,6.812,14.939,12.077,21.297,13.379v27.871c0,4.871-0.708,10.336-2.039,16.043c-0.014,0.085-0.043,0.184-0.057,0.27
		c-1.742,7.418-4.489,15.223-7.987,22.598C233.278,302.02,233.235,302.104,233.178,302.203z M259.943,330.114
		c-2.407,1.205-5.183,1.84-8.043,1.84c-4.319,0-8.44-1.443-11.584-4.062c-0.58-0.496-1.132-0.99-1.642-1.502
		c0.028-0.029,0.042-0.07,0.071-0.099c1.656-2.391,3.286-4.94,4.857-7.645c3.158-5.41,5.948-11.13,8.298-16.964
		c3.385,8.779,7.747,17.46,12.915,25.094C263.441,328.061,261.827,329.165,259.943,330.114z M349.225,313.617
		c-0.708,3.725-1.897,6.935-3.866,9.555c-5.493,7.366-18.72,11.586-40.399,12.902c-0.297,0.014-0.608,0.03-0.906,0.03
		c-6.43,0-12.802-3.968-18.621-10.239c-0.057-0.057-0.114-0.127-0.17-0.184c-5.438-5.918-10.379-13.847-14.359-22.458v-0.041
		c-0.085-0.17-0.156-0.341-0.241-0.525c-3.512-7.635-6.273-15.719-8.001-23.421c-0.014-0.031-0.014-0.071-0.028-0.1
		c-1.289-5.749-1.997-11.257-1.997-16.128v-27.87c6.613-1.361,15.378-6.458,22.091-13.17h0.014
		c30.459,8.64,67.574,29.368,67.574,69.246v1.841C350.33,300.984,350.33,307.91,349.225,313.617z M448.264,243.337l-0.014,0.382
		c0,28.917-37.227,50.554-81.296,64.688c0.369-4.985,0.354-10.14,0.354-15.365v-1.828c0-29.583-15.887-54.334-45.937-71.567
		c-9.346-5.368-19.386-9.544-29.213-12.659c0.41-1.558,0.637-3.13,0.637-4.688c0-17.998-17.602-23.195-29.198-23.195h-20.888
		c-5.792,0-13.679,1.626-20.108,5.083c-6.416,3.471-11.399,8.781-11.399,16.158c0,2.125,0.411,4.306,1.146,6.486
		c-9.969,3.13-20.193,7.361-29.681,12.815c-30.063,17.233-45.938,41.985-45.938,71.567c0,1.53-0.014,3.059-0.028,4.572
		c-0.028,4.336-0.042,8.71,0.157,13.014c-1.714-0.537-3.399-1.09-5.084-1.655c-34.693-11.684-76.028-32.175-76.028-63.426
		l-2.436-54.93c2.833,1.175,5.634,1.798,8.383,1.798c1.076,0,2.138-0.096,3.171-0.28c29.482-5.159,35.968-37.954,42.822-72.674
		c7.972-40.344,16.213-82.046,57.421-92.455c2.79-0.553,42.27-8.186,85.828-8.186c41.632,0,84.539,7.563,88.036,8.199
		c0.028,0,0.043,0.015,0.057,0.015c41.082,10.466,49.322,52.127,57.28,92.428c6.867,34.722,13.339,67.518,42.822,72.674
		c1.033,0.183,2.11,0.28,3.186,0.28c2.732,0,5.537-0.621,8.369-1.798L448.264,243.337z M484.53,104.875
		c-3.244,14.712-8.75,28.108-14.854,39.083c-6.005,10.805-12.575,19.259-18.083,24.315c-3.738,3.44-6.996,5.324-9.275,5.324
		c-0.127,0-0.213-0.014-0.254-0.029c-16.795-2.931-22.19-24.328-29.087-59.234c-5.352-27.103-11.555-58.554-29.852-80.645
		c-1.598-1.94-3.299-3.808-5.097-5.594c11.966,1.062,24.908,2.393,37.185,3.967c20.931,2.703,39.935,6.172,48.967,10.337
		C491.099,54.831,488.48,86.877,484.53,104.875z"/>
	<path fill="#00A86B" d="M337.933,158.215c1.809-9.175,10.69-16.498,19.989-18.024c10.543-1.728,21.22,3.806,26.078,12.968
		c2.047,3.866,2.811,8.084,2.925,12.39c0.147,5.333,0.155,10.68,0.012,16.018c-0.282,10.421-4.684,18.598-14.136,23.333
		c-8.303,4.159-19.134,3.212-26.629-3.023c-6.406-5.333-9.262-12.103-9.269-20.271c0-2.666,0-5.338,0-8.006
		C336.763,173.588,336.945,163.234,337.933,158.215z"/>
	<path fill="#00A86B" d="M118.42,158.217c1.81-9.175,10.688-16.498,19.988-18.025c10.544-1.728,21.222,3.806,26.077,12.97
		c2.052,3.865,2.815,8.084,2.93,12.391c0.144,5.333,0.152,10.678,0.011,16.015c-0.283,10.423-4.686,18.6-14.139,23.336
		c-8.301,4.157-19.132,3.212-26.627-3.026c-6.406-5.333-9.263-12.102-9.271-20.269c0-2.667,0-5.339,0-8.008
		C117.251,173.589,117.431,163.234,118.42,158.217z"/>
	<path fill="#00A86B" d="M213.411,74.757c9.582,0.254,17.549,3.412,24.509,8.614c2.115,1.578,4.222,3.199,6.555,4.532
		c5.431,3.106,11.332,2.891,16.543-0.515c3.878-2.537,7.42-5.459,11.503-7.726c13.468-7.474,29.419-5.8,41.307,2.783
		c2.719,1.964,5.236,4.173,8.205,5.818c2.046,1.132,4.673,1.923,7.12,2.095c4.283,0.298,7.875,1.304,9.483,4.75
		c1.676,3.581,1.428,7.27-2.034,10.091c-3.451,2.813-8.01,2.948-12.547,2.324c-7.094-0.976-13.014-3.852-18.229-7.859
		c-2.024-1.557-4.154-3.029-6.34-4.428c-5.906-3.778-12.92-3.365-18.57,0.745c-3.761,2.737-7.607,5.487-11.83,7.688
		c-9.005,4.693-18.71,5.249-28.666,2.174c-5.26-1.622-9.677-4.355-13.757-7.507c-1.77-1.368-3.587-2.773-5.65-3.787
		c-7.409-3.632-12.976-2.098-18.459,2.239c-4.348,3.439-8.794,6.712-14.335,8.698c-5.279,1.89-10.799,3.189-16.607,1.671
		c-4.483-1.173-7.742-5.19-7.177-8.592c0.789-4.746,4.655-7.986,10.062-8.069c4.24-0.065,7.532-1.458,10.468-3.87
		c6.068-4.982,12.593-9.425,21.268-10.952C208.596,75.258,211.015,75.057,213.411,74.757z"/>
</g>
</svg>
